<?xml version="1.0" encoding="iso-8859-1"?>
<!-- Generator: Adobe Illustrator 19.0.0, SVG Export Plug-In . SVG Version: 6.00 Build 0)  -->
<svg version="1.1" id="Capa_1" xmlns="http://www.w3.org/2000/svg" xmlns:xlink="http://www.w3.org/1999/xlink" x="0px" y="0px"
	 viewBox="0 0 512 512" style="enable-background:new 0 0 512 512;" xml:space="preserve">

	<style>
		.cls-1{fill:#136a81;}
	</style>
<g>
	<g>
		<g>
			<path class="cls-1" d="M337.45,195.765l-0.212,0.212c-2.969-3.818-5.94-8.061-9.546-11.667c-3.606-3.606-7.636-6.79-11.455-9.759
				l-43.487,43.487c4.454,2.333,8.697,4.88,12.515,8.698c17.609,17.609,17.607,46.032,0,63.64L136.772,438.868
				c-17.606,17.606-46.031,17.609-63.64,0c-17.607-17.607-17.606-46.034,0-63.64l58.549-58.549
				c-10.818-22.698-15.061-48.154-12.304-72.549l-88.671,88.671c-40.941,40.941-40.941,107.551,0,148.492
				c40.94,40.94,107.551,40.941,148.492,0L327.69,332.801c29.488-29.486,37.547-72.338,24.397-109.247
				C348.903,213.583,343.814,204.249,337.45,195.765z"/>
			<path class="cls-1" d="M481.294,30.706c-40.941-40.941-107.551-40.941-148.492,0L179.198,184.31c-29.487,29.487-37.546,72.336-24.394,109.247
				c3.181,9.971,8.273,19.305,14.637,27.789l0.211-0.211c2.97,3.817,5.94,8.061,9.546,11.667c3.606,3.606,7.638,6.788,11.456,9.757
				l43.487-43.487c-4.454-2.333-8.698-4.879-12.516-8.697c-17.607-17.607-17.606-46.034,0-63.64L375.228,73.132
				c17.607-17.607,46.032-17.607,63.64,0c17.609,17.609,17.607,46.032,0,63.64l-63.66,63.66
				c10.82,22.698,15.062,48.153,12.304,72.549l93.782-93.782C522.236,138.257,522.234,71.646,481.294,30.706z"/>
		</g>
	</g>
</g>
<g>
</g>
<g>
</g>
<g>
</g>
<g>
</g>
<g>
</g>
<g>
</g>
<g>
</g>
<g>
</g>
<g>
</g>
<g>
</g>
<g>
</g>
<g>
</g>
<g>
</g>
<g>
</g>
<g>
</g>
</svg>
