<?xml version="1.0" encoding="iso-8859-1"?>
<!-- Generator: Adobe Illustrator 19.0.0, SVG Export Plug-In . SVG Version: 6.00 Build 0)  -->
<svg version="1.1" id="Capa_1" xmlns="http://www.w3.org/2000/svg" xmlns:xlink="http://www.w3.org/1999/xlink" x="0px" y="0px"
	 viewBox="0 0 512 512" style="enable-background:new 0 0 512 512;" xml:space="preserve">

	<style>
		.cls-1{fill:#587021;}
	</style>
<g>
	<g>
		<path class="cls-1" d="M255,0C114.39,0,0,114.39,0,255s114.39,257,255,257s257-116.39,257-257S395.61,0,255,0z M255,452
			c-107.238,0-195-89.272-195-197c0-107.238,87.272-195,195-195c107.238,0,197,87.272,197,195C452,362.238,362.728,452,255,452z"/>
	</g>
</g>
<g>
	<g>
		<path class="cls-1" d="M407,270c-19.773,0-19.854-30,0-30h14.24c-3.105-34.243-16.663-65.497-37.522-90.507l-10.043,10.043
			c-13.954,13.954-35.35-7.072-21.211-21.211l10.043-10.043c-25.01-20.86-58.264-34.417-92.507-37.522V105c0,19.773-30,19.854-30,0
			V90.76c-34.243,3.105-65.497,16.663-90.507,37.522l10.043,10.043c14.211,14.211-7.47,34.952-21.211,21.211l-10.043-10.043
			c-20.86,25.01-34.417,56.264-37.522,90.507H105c19.773,0,19.854,30,0,30H90.76c3.105,34.243,16.663,67.497,37.522,92.507
			l10.043-10.043c13.945-13.945,35.271,7.151,21.211,21.211l-10.043,10.043c25.01,20.859,56.265,34.417,90.507,37.522V407
			c0-19.773,30-19.854,30,0v14.24c34.243-3.105,67.497-16.663,92.507-37.522l-10.043-10.043
			c-13.945-13.945,7.151-35.271,21.211-21.211l10.043,10.043c20.859-25.01,34.417-58.265,37.522-92.507H407z M306.394,325.606
			l-60-60c-5.859-5.859-5.859-15.352,0-21.211l60-60c5.859-5.859,15.352-5.859,21.211,0c5.859,5.859,5.859,15.352,0,21.211
			L278.211,255l49.394,49.395C341.816,318.606,320.135,339.347,306.394,325.606z"/>
	</g>
</g>
<g>
</g>
<g>
</g>
<g>
</g>
<g>
</g>
<g>
</g>
<g>
</g>
<g>
</g>
<g>
</g>
<g>
</g>
<g>
</g>
<g>
</g>
<g>
</g>
<g>
</g>
<g>
</g>
<g>
</g>
</svg>
