<?xml version="1.0" encoding="iso-8859-1"?>
<!-- Generator: Adobe Illustrator 23.0.1, SVG Export Plug-In . SVG Version: 6.00 Build 0)  -->
<svg version="1.1" id="Capa_1" xmlns="http://www.w3.org/2000/svg" xmlns:xlink="http://www.w3.org/1999/xlink" x="0px" y="0px"
	 viewBox="-49 307.421 390.189 299.579" style="enable-background:new -49 307.421 390.189 299.579;" xml:space="preserve">
<path d="M297.619,607H-5.43C-29.493,607-49,587.493-49,563.43V350.99c0-24.063,19.507-43.57,43.57-43.57h303.049
	c24.063,0,43.57,19.507,43.57,43.57v212.44C341.189,587.493,321.682,607,297.619,607z M311,356.764l-99.047,99.977L311,555.788
	V356.764z M-19,555.787l99.047-99.046L-19,356.764V555.787z M2.213,577h287.574l-98.947-98.947l-12.871,12.992
	c-17.622,17.787-46.313,17.789-63.937,0l-12.871-12.992L2.213,577z M288.35,337H3.65l131.694,132.931
	c5.874,5.929,15.439,5.929,21.312,0L288.35,337z"/>
</svg>
