<svg id="hatchery" xmlns="http://www.w3.org/2000/svg" viewBox="0 0 90.82 88.21">
	<defs>
		<style>
			.cls-1{fill:none;stroke-linecap:round;}
			.cls-1,.cls-3{stroke:#fff;stroke-miterlimit:10;stroke-width:1.5px;}
			.cls-2{fill:#fff;}

			#hatchery:hover {fill: #46C9B3; transition: 0.3s ease; cursor: pointer;}

			#hatchery_fin_back, #hatchery_fin_belly1, #hatchery_fin_belly2 { display: none; }

				@media screen and (min-width: 100px) {
				#hatchery_fin_back, #hatchery_fin_belly1, #hatchery_fin_belly2 { display: block; }
			}
		</style>
	</defs>

	<defs>
		<script>
			let icon_hatchery = document.querySelector("#hatchery");

			function logId() {
				console.log(this.id);
			}

			icon_hatchery.addEventListener("click", logId);
		</script>
	</defs>

	<title>icon</title>
	<g id="hatchery">
		<g id="hatchery_fish">
			<path id="hatchery_body" d="
				M90.2,7.46a2.07,2.07,0,0,0,.45-2.28c-.93-2-3.65-3.18-5.9-3.72A53.56,53.56,0,0,0,72.28,0C46.46,0,25.52,18.15,25.52,40.54c0,12.73,6.77,24.09,17.35,31.51C49,76.34,56,67.93,50.78,62.59h0l-1.23-1.44c-2-2.75-6.88-11.18.22-19a8.05,8.05,0,0,0,.74-.92c1.12-1.62,7-8.22,34.2-21.57A8.75,8.75,0,0,0,85.84,19a17.87,17.87,0,0,0,3.71-3.73A.81.81,0,0,0,89.1,14l-2.74-.74A.81.81,0,0,1,86,11.9Z"/>
			<path id="hatchery_fin_back" d="
				M28.42,55.18a2.86,2.86,0,0,0-1.19,1.65l-1.11,4.28a2.84,2.84,0,0,0,1.17,3.07l5.22,3.52a2.85,2.85,0,0,0,3.13,0A22,22,0,0,1,28.42,55.18Z"/>
			<path id="hatchery_fin_top" d="
				M49.77,3.25a6,6,0,0,0-4-1.72l-9.48-.32a6.11,6.11,0,0,0-5.9,3.87l-4.93,12.6a6.11,6.11,0,0,0,1.38,6.56A47.2,47.2,0,0,1,49.77,3.25Z"/>
			<path id="hatchery_fin_belly2" d="
				M64.72,32.05a8.09,8.09,0,0,1,.37,2.56c.51,1,1.84.65,2.39-.56l.67-.82a12,12,0,0,0,2.28-4.48Q67.25,30.52,64.72,32.05Z"/>
			<path id="hatchery_fin_belly1" d="
				M56.73,37.39A6.88,6.88,0,0,1,58,41.75c.52,1,1.85.65,2.4-.57l.67-.81a11.93,11.93,0,0,0,2.65-6.5,2.06,2.06,0,0,0,.17-1.24C60.92,34.47,58.56,36.05,56.73,37.39Z"/>
			<path id="hatchery_tail" d="
				M65.72,56s-9.15,6.26-12.2,7h0l-.09,0A8.51,8.51,0,0,1,45.74,75.3h-.17l2.53,2.63,8.73,9a4.05,4.05,0,0,0,6.82-1.7L62.09,78a13.48,13.48,0,0,1,4-12.71L70.6,61.1A4.06,4.06,0,0,0,65.72,56Z"/>
			<path id="hatchery_gills" class="cls-1" d="M66.63,4a24.31,24.31,0,0,0,6.13,21.83"/>
			<circle id="hatchery_eye" class="cls-2" cx="78.13" cy="9.67" r="2.51"/>
		</g>
		<g id="hatchery_heart">
			<path id="hatchery_heart_bg" class="cls-3" d="
				M22.05,64,39,46.31a15.12,15.12,0,0,0,2.35-3.15h0C46.58,33.83,36.67,23.3,27,28l-5.33,2.59h0l-5.38-2.48c-9.72-4.49-19.42,6.25-14,15.46h0a15.51,15.51,0,0,0,2.41,3.11L22,64Z"/>
			<rect id="hatchery_plus2" class="cls-2" x="18.92" y="33.58" width="5.66" height="19.78" rx="2.83" transform="translate(-0.44 0.22) rotate(-0.58)"/>
			<rect id="hatchery_plus1" class="cls-2" x="18.92" y="33.58" width="5.66" height="19.78" rx="2.83" transform="translate(65 21.28) rotate(89.42)"/>
		</g>
	</g>
</svg>