<svg id="angler" class="icon" xmlns="http://www.w3.org/2000/svg" viewBox="0 0 93.87 106.75">
	<defs>
		<style>
			.cls-1,.cls-4,.cls-5,.cls-6,.cls-7{fill:none;}
			.cls-1,.cls-6,.cls-7{stroke:#587021;}
			.cls-1,.cls-2,.cls-3,.cls-4,.cls-5,.cls-6,.cls-7{stroke-miterlimit:10;}
			.cls-1,.cls-2,.cls-6{stroke-width:1.3px;}
			.cls-2,.cls-3,.cls-4,.cls-5{stroke:#fff;}
			.cls-4{stroke-width:0.55px;}
			.cls-5{stroke-width:0.37px;}
			.cls-6{stroke-linecap:round;}
			.cls-7{stroke-width:3.43px;}
			.cls-8,.cls-2,.cls-3 {fill:#587021;}

		</style>
	</defs>

	<title>icon</title>
	<g id="angler">
		<g id="angler_person">
			<circle id="angler_person_head" class="cls-8" cx="42.41" cy="22.03" r="9.48"/>
			<rect id="angler_person_leg_left" class="cls-8" x="30.16" y="63.75" width="9.48" height="43" rx="4.47"/>
			<rect id="angler_person_arm_left" class="cls-8" x="18.3" y="31.69" width="9.48" height="43" rx="4.47" transform="translate(33.62 -3.8) rotate(33.93)"/>
			<rect id="angler_person_leg_right" class="cls-8" x="45.18" y="63.16" width="9.48" height="43.59" rx="4.5"/>
			<rect id="angler_person_arm_right" class="cls-8" x="57.04" y="31.34" width="9.48" height="43.59" rx="4.5" transform="translate(142.69 62.74) rotate(146.07)"/>
			<path id="angler_person_body" class="cls-8" d="
				M30.16,63.16v6.43a1.91,1.91,0,0,0,1.91,1.91h6.19A2,2,0,0,0,40,70.42a2.53,2.53,0,0,1,2.21-1.29h.42a2.54,2.54,0,0,1,2.21,1.29,2,2,0,0,0,1.72,1.08h6.19a1.91,1.91,0,0,0,1.92-1.91V63.16"/>
			<path id="angler_person_box" class="cls-8" d="
				M2.57,73H21.66a2.57,2.57,0,0,1,2.57,2.57V85.2a2.71,2.71,0,0,1-2.71,2.71H2.71A2.71,2.71,0,0,1,0,85.2V75.57A2.57,2.57,0,0,1,2.57,73Z"/>
			<path id="angler_person_handle" class="cls-1" d="
				M8.24,73.25V71.47A1.27,1.27,0,0,1,9.51,70.2h6.17A1.27,1.27,0,0,1,17,71.47v1.78"/>
			<path id="angler_person_hat_bottom" class="cls-2" d="
				M53.67,19.7H30.88a.8.8,0,0,1-.71-1.22l1.88-3H52.51l1.88,3A.8.8,0,0,1,53.67,19.7Z"/>
			<path id="angler_person_hat_top" class="cls-8" d="
				M46,8.19H38.59a5.48,5.48,0,0,0-5.18,3.54l-1.36,3.74H52.51l-1.37-3.74A5.47,5.47,0,0,0,46,8.19Z"/>
		</g>

		<g id="angler_vest">
			<path id="vest_bg" class="cls-3" d="
				M52.44,39.61a16.19,16.19,0,0,1,.32-3.19,1.75,1.75,0,0,0-1.23-2L47,33.07H47a5,5,0,0,1-9.23,0h-.19l-4.4,1.3a1.75,1.75,0,0,0-1.22,2,15.77,15.77,0,0,1,.32,3.22c0,3.8-1.25,7-3,8.42a1.78,1.78,0,0,0-.71,1.41V62.65a1.76,1.76,0,0,0,1.76,1.76H54.31a1.76,1.76,0,0,0,1.76-1.76V49.35A1.77,1.77,0,0,0,55.4,48C53.66,46.57,52.44,43.36,52.44,39.61Z"/>
			<g id="angler_small_pocket_left">
				<rect id="angler_small_pocket_left_bg" class="cls-4" x="34.37" y="41.97" width="5.97" height="6.53" rx="1.14"/>
				<path id="angler_small_pocket_left_top" class="cls-4" d="
					M34.37,43.72a2.37,2.37,0,0,0,2.37,2.37H38a2.37,2.37,0,0,0,2.37-2.37"/>
			</g>
			<g id="angler_small_pocket_right">
				<rect id="angler_small_pocket_right_bg" class="cls-4" x="44.07" y="41.97" width="5.97" height="6.53" rx="1.14"/>
				<path id="angler_small_pocket_right_top" class="cls-4" d="
					M44.07,43.72a2.37,2.37,0,0,0,2.37,2.37h1.23A2.37,2.37,0,0,0,50,43.72"/>
			</g>
			<g id="angler_large_pocket_left">
				<rect id="angler_large_pocket_left_bg" class="cls-4" x="31.38" y="53.11" width="8.96" height="6.53" rx="1.4"/>
				<path id="angler_large_pocket_left_top2" class="cls-4" d="
					M37.17,52.5h.32a2.24,2.24,0,0,1,2.24,2.24v0A2.24,2.24,0,0,1,37.49,57h-.32a.7.7,0,0,1-.7-.7V53.19A.7.7,0,0,1,37.17,52.5Z" transform="translate(92.84 16.63) rotate(90)"/>
				<path id="angler_large_pocket_left_top1" class="cls-4" d="M32.69,52.5H33a2.24,2.24,0,0,1,2.24,2.24v0A2.24,2.24,0,0,1,33,57h-.32a.7.7,0,0,1-.7-.7V53.19a.7.7,0,0,1,.7-.7Z" transform="translate(88.36 21.11) rotate(90)"/>
				<line id="angler_large_pocket_left_line" class="cls-4" x1="35.86" y1="53.11" x2="35.86" y2="59.63"/>
			</g>
			<g id="angler_large_pocket_right">
				<rect id="angler_large_pocket_right_bg" class="cls-4" x="44.07" y="53.06" width="8.96" height="6.53" rx="1.4"/>
				<path id="angler_large_pocket_right_top2" class="cls-4" d="
					M49.85,52.45h.32a2.24,2.24,0,0,1,2.24,2.24v0a2.24,2.24,0,0,1-2.24,2.24h-.32a.7.7,0,0,1-.7-.7V53.15A.7.7,0,0,1,49.85,52.45Z" transform="translate(105.48 3.9) rotate(90)"/>
				<path id="angler_large_pocket_right_top1" class="cls-4" d="M45.37,52.45h.32a2.24,2.24,0,0,1,2.24,2.24v0a2.24,2.24,0,0,1-2.24,2.24h-.32a.7.7,0,0,1-.7-.7V53.15A.7.7,0,0,1,45.37,52.45Z" transform="translate(100.99 8.38) rotate(90)"/>
				<line id="angler_large_pocket_right_line" class="cls-4" x1="48.55" y1="53.06" x2="48.55" y2="59.58"/>
			</g>
			<line id="vest_zipper" class="cls-5" x1="42.16" y1="36.12" x2="42.16" y2="64.41"/>
		</g>

		<g id="angler_rod">
			<rect id="angler_rod_main" class="cls-8" x="67.86" y="0.65" width="2.08" height="105.07" rx="1.04"/>
			<rect id="angler_rod_bait" class="cls-8" x="87.99" y="73.25" width="2.33" height="3.49" rx="1.05"/>
			<path id="angler_rod_hook" class="cls-1" d="
				M92.4,76.74s1.31.5.61,2.28c0,0-1,1.57-2.48.92a2.48,2.48,0,0,1-1.37-2.3V75m2.32,2.91,1-1.87"/>
			<path id="angler_rod_line2" class="cls-1" d="
				M68.91,8.19c7.92,7.61,0,13.84,0,13.84,7.33,6.51,0,14.92,0,14.92,6.48,5.61,0,16.24,0,16.24,6.27,7.84,0,20.06,0,20.06,6.27,6.68,0,10.33,0,10.33"/>
			<path id="angler_rod_line" class="cls-6" d="M68.91.65c13.68,15.91,20.25,72.6,20.25,72.6"/>
			<circle id="angler_rod_reel" class="cls-7" cx="73.23" cy="86.6" r="3.02"/>
			<rect id="angler_rod_handle" class="cls-8" x="67" y="93.59" width="3.82" height="12.14" rx="1.91"/>
		</g>
	</g>

</svg>