<svg id="fish_lift" xmlns="http://www.w3.org/2000/svg" xmlns:xlink="http://www.w3.org/1999/xlink" viewBox="0 0 79.96 110.99">
	<defs>
		<style>
			.cls-1,.cls-3{fill:none;}
			.cls-2{clip-path:url(#clip-path);}
			.cls-3{stroke:#fff;stroke-linecap:round;stroke-miterlimit:10;stroke-width:1.13px;}
			.cls-4{fill:#ffe3eb;}

			#fish_lift:hover {fill: #46C9B3; transition: 0.3s ease; cursor: pointer;}

			#lift_fish_stripes, #lift_fish_eye, #lift_fish_fin_bottom, #lift_fish_fin_top { display: none; }

				@media screen and (min-width: 150px) {
				#lift_fish_stripes, #lift_fish_eye, #lift_fish_fin_bottom, #lift_fish_fin_top { display: block; }

		</style>

	<clipPath id="clip-path">
		<path id="lift_fish_tail_mask" class="cls-1" d="
			M6,24.25a38.52,38.52,0,0,0,12.29-7.69.47.47,0,0,0,0-.67A43.49,43.49,0,0,0,5.52,6.32,2.19,2.19,0,0,0,2.57,7.5a21.85,21.85,0,0,0-1.44,7.26,19.49,19.49,0,0,0,2.21,8.56A2.17,2.17,0,0,0,6,24.25Z"/>
	</clipPath>
	</defs>

	<defs>
		<script>
			let icon_raising_fish = document.querySelector("#fish_lift");

			function logId() {
				console.log(this.id);
			}

			icon_raising_fish.addEventListener("click", logId);
		</script>
	</defs>

	<title>icon</title>
	<g id="fish_lift">
		<g id="lift_person">
			<circle id="lift_person_head" cx="44.96" cy="37.3" r="8.24"/>
			<rect id="lift_leg_left" x="34.31" y="73.59" width="8.24" height="37.41" rx="3.89"/>
			<rect id="lift_arm_left" x="24.43" y="21.37" width="8.24" height="37.41" rx="3.89" transform="translate(-17.51 22.76) rotate(-33.93)"/>
			<rect id="lift_leg_right" x="47.37" y="73.08" width="8.24" height="37.92" rx="3.91"/>
			<rect id="lift_arm_right" x="57.05" y="21.33" width="8.24" height="37.92" rx="3.91" transform="translate(89.44 107.85) rotate(-146.07)"/>
			<path id="lift_person_body" d="M45,48.58a11,11,0,0,1-8.28-3.75H34.31v35.5h8.26a2.22,2.22,0,0,1,2.21-2.06h.36a2.21,2.21,0,0,1,2.21,2.06h8.26V44.83H53.24A11,11,0,0,1,45,48.58Z"/>
		</g>

		<g id="lift_fish">
			<path id="lift_fish_body" d="
				M62,14.76a10.71,10.71,0,0,1,2.18-6.48.48.48,0,0,0-.21-.73A52.84,52.84,0,0,0,44.6,3.61c-17.08,0-31.3,10-34.26,12.19a.48.48,0,0,0,.05.8C13.45,18.37,27.61,26,44.6,26a66.86,66.86,0,0,0,19.94-3.23.48.48,0,0,0,.21-.78A10.7,10.7,0,0,1,62,14.76Z"/>
			<path id="lift_fish_head" d="
				M79.48,15.8l.28-.21a.49.49,0,0,0,0-.79A68.75,68.75,0,0,0,67.13,7.93a.5.5,0,0,0-.57.14,10.73,10.73,0,0,0,.78,14.23.49.49,0,0,0,.5.12,76.62,76.62,0,0,0,11.7-5,.49.49,0,0,0,0-.85h0A.48.48,0,0,1,79.48,15.8Z"/>
			<path id="lift_fish_tail" d="
				M8.35,16.6a.48.48,0,0,1,0-.8c.73-.55,2.13-1.55,4.07-2.76a1,1,0,0,0,.1-1.56,41,41,0,0,0-8-5.15,2.2,2.2,0,0,0-3,1.16A22,22,0,0,0,0,14.76a19.47,19.47,0,0,0,2.19,8.52,2.25,2.25,0,0,0,2.68,1,38,38,0,0,0,7.54-3.94,1,1,0,0,0-.13-1.65C10.42,17.77,9.08,17,8.35,16.6Z"/>
			<g id="lift_fish_stripes">
				<g class="cls-2">
					<line id="lift_stripe4" class="cls-3" x1="0.38" y1="11.54" x2="4.93" y2="11.54"/>
					<line id="lift_stripe3" class="cls-3" x1="0.38" y1="14.01" x2="4.93" y2="14.01"/>
					<line id="lift_stripe2" class="cls-3" x1="0.38" y1="16.49" x2="4.93" y2="16.49"/>
					<line id="lift_stripe1" class="cls-3" x1="0.38" y1="18.96" x2="4.93" y2="18.96"/>
				</g>
			</g>
			<circle id="lift_fish_eye" class="cls-4" cx="74" cy="16.09" r="1.3"/>
			<path id="lift_fish_fin_bottom" d="M35.47,26.19a3.19,3.19,0,0,1-2,.88l-2.4.36a.47.47,0,0,1-.52-.3l-.39-1a.48.48,0,0,1,.56-.64A25.64,25.64,0,0,0,35.47,26.19Z"/>
			<path id="lift_fish_fin_top" d="M41,2.63a.49.49,0,0,0,.22-.9,8.17,8.17,0,0,0-3-.95L33.05,0a.47.47,0,0,0-.52.3L31.28,3.59a.48.48,0,0,0,.57.64A51.5,51.5,0,0,1,41,2.63Z"/>
		</g>
	</g>
</svg>