<svg id="give_back" xmlns="http://www.w3.org/2000/svg" viewBox="0 0 102.69 88.45">
	<defs>
		<style>
			.cls-1{fill:none;stroke:#136a81;stroke-linecap:round;stroke-miterlimit:10;stroke-width:3.37px;}
			.cls-2{fill:#fff;}
			.cls-3{fill:#136a81;}

			#give_back:hover {fill: #46C9B3; transition: 0.3s ease; cursor: pointer;}
			#give_back:hover .cls-1 {stroke: #46C9B3; transition: 0.3s ease; cursor: pointer;}

			#give_fish_eye, #give_fish_fin_bottom, #give_fish_fin_top { display: none; }

				@media screen and (min-width: 150px) {
				#give_fish_eye, #give_fish_fin_bottom, #give_fish_fin_top { display: block; }
		</style>
	</defs>

	<defs>
		
	</defs>

	<title>icon</title>
	<g id="give_back">
		<path id="give_water2" class="cls-1" d="
			M22.69,82.87A16.91,16.91,0,0,0,33.5,86.76h1a17,17,0,0,0,10.83-3.89,25.71,25.71,0,0,1,16.47-5.68,25.71,25.71,0,0,1,16.47,5.68,16.91,16.91,0,0,0,10.81,3.89h1A17,17,0,0,0,101,82.87"/>
		<path id="give_water1" class="cls-1" d="
			M22.69,68A16.91,16.91,0,0,0,33.5,71.85h1A16.93,16.93,0,0,0,45.38,68a25.71,25.71,0,0,1,16.47-5.68A25.71,25.71,0,0,1,78.32,68a16.91,16.91,0,0,0,10.81,3.89h1A17,17,0,0,0,101,68"/>
		<path id="give_hand" class="cls-3" d="
			M6.81,0l18.8,8.66a12.11,12.11,0,0,1,5.21,4.58L40,27.77l.37.75A2.63,2.63,0,0,1,35.75,30l-7.86-9c-1.07-1.26-2.8.3-2.05,1.19L34.27,32a4.5,4.5,0,0,0,5.43.83,1.83,1.83,0,0,1,1.94.19L57.85,45.35a2.78,2.78,0,0,1-2.61,4.37L26.6,39.2c-5.14-1.7-6.62-8-6.62-8L13,16.76C11.86,12.66.66,11.55.66,11.55-2.51,1.45,6.81,0,6.81,0Z"/>
		<g id="give_fish">
			<path id="give_fish_body" class="cls-3" d="
				M80.37,42.43a5.87,5.87,0,0,1,2.74-2.53.25.25,0,0,0,.09-.4,28.79,28.79,0,0,0-8.19-7c-8.17-4.5-17.58-3.48-19.58-3.19a.26.26,0,0,0-.19.39A39.81,39.81,0,0,0,69.13,43.22,36.26,36.26,0,0,0,79.5,46.93a.27.27,0,0,0,.31-.32A5.8,5.8,0,0,1,80.37,42.43Z"/>
			<path id="give_fish_head" class="cls-3" d="
				M88.47,47.53l.19,0a.27.27,0,0,0,.21-.38,37.85,37.85,0,0,0-4.23-6.6.27.27,0,0,0-.31-.09A5.88,5.88,0,0,0,81.46,43a5.81,5.81,0,0,0-.5,4.43.27.27,0,0,0,.21.19,41.73,41.73,0,0,0,6.89.7.26.26,0,0,0,.23-.4h0A.27.27,0,0,1,88.47,47.53Z"/>
			<path id="give_fish_tail" class="cls-3" d="
				M52.84,28.78a.27.27,0,0,1,.19-.4c.48-.07,1.42-.18,2.66-.24a.52.52,0,0,0,.46-.72,22.56,22.56,0,0,0-2.49-4.58,1.2,1.2,0,0,0-1.73-.23,12.22,12.22,0,0,0-2.6,3.09,10.78,10.78,0,0,0-1.2,4.65,1.25,1.25,0,0,0,1,1.17,20.42,20.42,0,0,0,4.64.1.51.51,0,0,0,.37-.82C53.52,29.88,53.07,29.17,52.84,28.78Z"/>
			<circle id="give_fish_eye" class="cls-2" cx="85.77" cy="46.23" r="0.71"/>
			<path id="give_fish_fin_bottom" d="
				M64.71,40.92a1.77,1.77,0,0,1-1.19-.1l-1.24-.46a.26.26,0,0,1-.17-.28l.08-.59a.27.27,0,0,1,.44-.16A13.43,13.43,0,0,0,64.71,40.92Z"/>
			<path id="give_fish_fin_top" d="
				M73.53,31.11a.26.26,0,0,0,.34-.37,4.5,4.5,0,0,0-1.16-1.24l-2.27-1.73a.27.27,0,0,0-.33,0L68.65,29a.26.26,0,0,0,.1.46A26.74,26.74,0,0,1,73.53,31.11Z"/>
		</g>
	</g>
</svg>