<svg id="fish_protect" xmlns="http://www.w3.org/2000/svg" viewBox="0 0 78.96 91.58">
	<defs>
		<style>
			.cls-1,
			.cls-2{fill:none;stroke-miterlimit:10;}
			.cls-1{stroke:#587021;stroke-width:2.66px;}
			.cls-2{stroke:#fff;stroke-linecap:round;stroke-width:1.99px;}
			.cls-3{fill:#fff;}
			.cls-4{fill:#587021;}

			#fish_protect {fill: #587021;}

			#fin_back, #fin_belly1, #fin_belly2 { display: none; }

				@media screen and (min-width: 88px) {
				#fin_back, #fin_belly1, #fin_belly2 { display: block; }
			}
		</style>
	</defs>

	<defs>
	</defs>

	<title>icon</title>
	<g id="fish_protect">
		<path id="shield" class="cls-1" d="
			M65.12,73.77,41.65,88.88a8.61,8.61,0,0,1-9.26,0L9,74.09a16.59,16.59,0,0,1-7.71-14V17.65A5.15,5.15,0,0,1,5,12.74c6.92-2.15,22-7,29.81-10.88a5,5,0,0,1,4.52,0C47,5.75,62.16,10.6,69.1,12.74a5.15,5.15,0,0,1,3.63,4.92V59.81A16.63,16.63,0,0,1,65.12,73.77Z"/>
		<path id="body" class="cls-4" d="
			M78.34,8.79a2.09,2.09,0,0,0,.45-2.28c-.93-2-3.65-3.18-5.9-3.72A53.56,53.56,0,0,0,60.42,1.33c-25.83,0-46.76,18.15-46.76,40.54C13.66,54.6,20.42,66,31,73.38c6.11,4.29,13.11-4.12,7.91-9.46h0l-1.23-1.44c-2-2.75-6.88-11.18.22-19a9.31,9.31,0,0,0,.74-.92c1.12-1.62,7-8.22,34.19-21.58A7.3,7.3,0,0,0,74,20.31a18.12,18.12,0,0,0,3.71-3.73.82.82,0,0,0-.45-1.27l-2.74-.73a.81.81,0,0,1-.36-1.35Z"/>
		<path id="fin_top" class="cls-4" d="
			M35.7,5.44A5.58,5.58,0,0,0,32,4l-8.65.1A5.56,5.56,0,0,0,18.1,7.92l-4,11.68a5.55,5.55,0,0,0,1.54,5.92A43,43,0,0,1,35.7,5.44Z"/>
		<path id="fin_back" d="
			M14.56,54.5a2.88,2.88,0,0,0-1.19,1.66l-1.11,4.28a2.84,2.84,0,0,0,1.17,3.07L18.65,67a2.83,2.83,0,0,0,3.12,0A22,22,0,0,1,14.56,54.5Z"/>
		<path id="fin_belly2" d="
			M52.86,33.38a7.81,7.81,0,0,1,.36,2.56c.52,1,1.85.65,2.4-.57l.67-.81a12,12,0,0,0,2.28-4.48Q55.39,31.85,52.86,33.38Z"/>
		<path id="fin_belly1" d="
			M44.86,38.72a6.81,6.81,0,0,1,1.32,4.35c.52,1,1.85.66,2.4-.56l.67-.81a12,12,0,0,0,2.65-6.5A2.06,2.06,0,0,0,52.07,34C49.06,35.8,46.7,37.38,44.86,38.72Z"/>
		<path id="tail" class="cls-4" d="
			M53.86,57.37s-9.15,6.26-12.2,7h0l-.09,0a8.51,8.51,0,0,1-7.67,12.22h-.17l2.53,2.62L45,88.3a4.06,4.06,0,0,0,6.82-1.7l-1.56-7.25a13.48,13.48,0,0,1,4-12.71l4.51-4.21A4.06,4.06,0,0,0,53.86,57.37Z"/>
		<path id="back_stripe" class="cls-2" d="M54.77,16.42C19.93,29.28,25.55,54.5,25.55,54.5"/>
		<path id="gills" class="cls-2" d="M54.77,5.31A24.31,24.31,0,0,0,60.9,27.14"/>
		<circle id="eye" class="cls-3" cx="66.27" cy="11" r="2.51"/>
	</g>
</svg>