<svg id="salmonids" xmlns="http://www.w3.org/2000/svg" viewBox="0 0 135.44 78.47">
	<defs>
		<style>
			.cls-1{fill:none;}
			.cls-1,.cls-2{stroke:#fff;stroke-linecap:round;stroke-miterlimit:10;stroke-width:0.94px;}
			.cls-3{fill:#fff;}

			#salmonids:hover { fill:#46C9B3; transition: 0.3s ease; cursor: pointer;}

			#salmonids_trout4_bottom_fin2, #salmonids_trout3_bottom_fin2, #salmonids_trout2_bottom_fin2, #salmonids_trout1_bottom_fin2, #salmonids_trout4_dots, #salmonids_trout3_dots, #salmonids_trout2_dots, #salmonids_trout1_dots { display:none; }

				@media screen and (min-width: 150px) {
				#salmonids_trout4_bottom_fin2, #salmonids_trout3_bottom_fin2, #salmonids_trout2_bottom_fin2, #salmonids_trout1_bottom_fin2, #salmonids_trout4_dots, #salmonids_trout3_dots, #salmonids_trout2_dots, #salmonids_trout1_dots { display:block; }
				}

		</style>
	</defs>

	<defs>
		<script>
			let icon_salmonids = document.querySelector("#salmonids");

			function logId() {
				console.log(this.id);
			}

			icon_salmonids.addEventListener("click", logId);
		</script>
	</defs>

	<title>icon</title>
	<g id="salmonids">
		<g id="salmonids_trout4">
			<path id="salmonids_trout4_top_fin" d="
				M57.08,59.77h0A98.19,98.19,0,0,1,67.23,59a1.23,1.23,0,0,0-.25-.36l-4.22-4.22a1.33,1.33,0,0,0-1.77-.1l-4,3.17a1.33,1.33,0,0,0-.2,1.9Z"/>
			<path id="salmonids_trout4_tail" d="
				M37.64,67c0-1.74,2.56-3.77,6.23-4.44-1.14-1.51-2.89-2-4.89-2.13-.31,0-.62,0-.92-.09L34,59.74a1,1,0,0,0-1,1.54l.44.73a43.46,43.46,0,0,1,2,4.1,2.61,2.61,0,0,1,0,2.12,44.49,44.49,0,0,1-2,4.09l-.44.73a1,1,0,0,0,1,1.54L38.06,74c.3,0,.61-.07.92-.09,2.09-.14,3.91-.72,5-2.34C40.27,70.86,37.64,68.81,37.64,67Z"/>
			<path id="salmonids_trout4_bottom_fin2" d="
				M60,74.67l-.08,1.75,0,.91a.58.58,0,0,0,1,.43l1.45-1.45,1.39-1.39C62.35,74.85,61.12,74.77,60,74.67Z"/>
			<path id="salmonids_trout4_bottom_fin1" d="
				M47.56,72.86h0A76.52,76.52,0,0,0,55.4,74.3a1.38,1.38,0,0,1-.23.26l-3.64,2.92a1,1,0,0,1-1.39-.07l-2.85-2.8a1.06,1.06,0,0,1,0-1.5Z"/>
			<path id="salmonids_trout4_body" d="
				M96.5,67.16c0,2.52-5.42,5.3-13.56,6.53a66.74,66.74,0,0,1-15.14.49c-16.61-1.33-28.71-3.14-28.71-7s12.1-5.72,28.71-7a67.36,67.36,0,0,1,15.14.48C91.08,61.87,96.5,64.65,96.5,67.16Z"/>
			<path id="salmonids_trout4_gills" class="cls-1" d="
				M86.05,73.12a11,11,0,0,1-2-1.53,5.44,5.44,0,0,1,0-7.7"/>
			<path id="salmonids_trout4_fin_side" class="cls-2" d="
				M83.66,72,81.2,77.51a.83.83,0,0,1-1.45.13l-1.82-2.11a.83.83,0,0,1,.08-1l4.27-3.45a.84.84,0,0,1,.81-.25h0A.84.84,0,0,1,83.66,72Z"/>
			<g id="salmonids_trout4_dots">
				<circle id="dot" class="cls-3" cx="91.41" cy="66.45" r="1.43"/>
				<circle id="dot-2" data-name="dot" class="cls-3" cx="50.34" cy="64.44" r="0.7"/>
				<circle id="dot-3" data-name="dot" class="cls-3" cx="55.13" cy="63.95" r="0.7"/>
				<circle id="dot-4" data-name="dot" class="cls-3" cx="59.91" cy="63.32" r="0.7"/>
				<circle id="dot-5" data-name="dot" class="cls-3" cx="64.7" cy="62.88" r="0.7"/>
				<circle id="dot-6" data-name="dot" class="cls-3" cx="69.48" cy="62.35" r="0.7"/>
				<circle id="dot-7" data-name="dot" class="cls-3" cx="74.27" cy="62.25" r="0.7"/>
				<circle id="dot-8" data-name="dot" class="cls-3" cx="79.06" cy="62.25" r="0.7"/>
				<circle id="dot-9" data-name="dot" class="cls-3" cx="53.21" cy="66.61" r="0.7"/>
				<circle id="dot-10" data-name="dot" class="cls-3" cx="58" cy="65.98" r="0.7"/>
				<circle id="dot-11" data-name="dot" class="cls-3" cx="62.78" cy="65.55" r="0.7"/>
				<circle id="dot-12" data-name="dot" class="cls-3" cx="67.57" cy="65.01" r="0.7"/>
				<circle id="dot-13" data-name="dot" class="cls-3" cx="72.35" cy="64.92" r="0.7"/>
				<circle id="dot-14" data-name="dot" class="cls-3" cx="77.14" cy="64.92" r="0.7"/>
			</g>
		</g>

		<g id="salmonids_trout3">
			<path id="salmonids_trout3_top_fin" d="
				M96,32.74h0A101.24,101.24,0,0,1,106.17,32a1.78,1.78,0,0,0-.25-.36l-4.23-4.22a1.33,1.33,0,0,0-1.77-.11l-4,3.18a1.34,1.34,0,0,0-.19,1.9Z"/>
			<path id="salmonids_trout3_tail" d="
				M76.58,40c0-1.75,2.55-3.77,6.22-4.44-1.13-1.51-2.89-2-4.89-2.14a9,9,0,0,1-.91-.08l-4.09-.64a1,1,0,0,0-1,1.53l.44.73c.63,1,1.5,2.92,2,4.1a2.53,2.53,0,0,1,0,2.12c-.53,1.18-1.4,3.06-2,4.1l-.44.73a1,1,0,0,0,1,1.53L77,46.92c.3,0,.6-.06.91-.08,2.09-.15,3.92-.72,5-2.35C79.2,43.83,76.58,41.79,76.58,40Z"/>
			<path id="salmonids_trout3_bottom_fin2" d="
				M98.88,47.64l-.08,1.75,0,.92a.58.58,0,0,0,1,.43l1.45-1.45,1.4-1.4C101.29,47.83,100.05,47.74,98.88,47.64Z"/>
			<path id="salmonids_trout3_bottom_fin1" d="
				M86.49,45.83h0a77.5,77.5,0,0,0,7.83,1.44.92.92,0,0,1-.22.26l-3.65,2.93a1.05,1.05,0,0,1-1.39-.07l-2.84-2.81a1,1,0,0,1,0-1.49Z"/>
			<path id="salmonids_trout3_body" d="
				M135.44,40.14c0,2.51-5.42,5.29-13.57,6.53a66.76,66.76,0,0,1-15.14.48C90.12,45.83,78,44,78,40.14s12.1-5.73,28.71-7a67.3,67.3,0,0,1,15.14.49C130,34.84,135.44,37.62,135.44,40.14Z"/>
			<path id="salmonids_trout3_gills" class="cls-1" d="
				M125,46.1a11,11,0,0,1-2-1.54,5.44,5.44,0,0,1,0-7.7"/>
			<path id="salmonids_trout3_fin_side" class="cls-2" d="
				M122.59,44.93l-2.45,5.55a.84.84,0,0,1-1.46.13l-1.81-2.1a.84.84,0,0,1,.07-1L121.21,44a.8.8,0,0,1,.81-.25h0A.83.83,0,0,1,122.59,44.93Z"/>
			<g id="salmonids_trout3_dots">
				<circle id="dot-15" data-name="dot" class="cls-3" cx="130.34" cy="39.43" r="1.43"/>
				<circle id="dot-16" data-name="dot" class="cls-3" cx="89.27" cy="37.42" r="0.7"/>
				<circle id="dot-17" data-name="dot" class="cls-3" cx="94.06" cy="36.92" r="0.7"/>
				<circle id="dot-18" data-name="dot" class="cls-3" cx="98.85" cy="36.29" r="0.7"/>
				<circle id="dot-19" data-name="dot" class="cls-3" cx="103.63" cy="35.86" r="0.7"/>
				<circle id="dot-20" data-name="dot" class="cls-3" cx="108.42" cy="35.32" r="0.7"/>
				<circle id="dot-21" data-name="dot" class="cls-3" cx="113.2" cy="35.22" r="0.7"/>
				<circle id="dot-22" data-name="dot" class="cls-3" cx="117.99" cy="35.22" r="0.7"/>
				<circle id="dot-23" data-name="dot" class="cls-3" cx="92.14" cy="39.59" r="0.7"/>
				<circle id="dot-24" data-name="dot" class="cls-3" cx="96.93" cy="38.96" r="0.7"/>
				<circle id="dot-25" data-name="dot" class="cls-3" cx="101.71" cy="38.52" r="0.7"/>
				<circle id="dot-26" data-name="dot" class="cls-3" cx="106.5" cy="37.99" r="0.7"/>
				<circle id="dot-27" data-name="dot" class="cls-3" cx="111.29" cy="37.89" r="0.7"/>
				<circle id="dot-28" data-name="dot" class="cls-3" cx="116.07" cy="37.89" r="0.7"/>
			</g>
		</g>
		<g id="salmonids_trout2">
			<path id="salmonids_trout2_top_fin" d="
				M24.28,32.74h0A101.24,101.24,0,0,1,34.44,32a1.78,1.78,0,0,0-.25-.36L30,27.42a1.35,1.35,0,0,0-1.78-.11l-4,3.18a1.33,1.33,0,0,0-.2,1.9Z"/>
			<path id="salmonids_trout2_tail" d="
				M4.85,40c0-1.75,2.56-3.77,6.23-4.44-1.14-1.51-2.9-2-4.9-2.14-.3,0-.61,0-.91-.08l-4.09-.64a1,1,0,0,0-1,1.53L.6,35c.63,1,1.5,2.92,2,4.1a2.61,2.61,0,0,1,0,2.12c-.53,1.18-1.4,3.06-2,4.1L.15,46a1,1,0,0,0,1,1.53l4.09-.64c.3,0,.61-.06.91-.08,2.09-.15,3.92-.72,5.05-2.35C7.48,43.83,4.85,41.79,4.85,40Z"/>
			<path id="salmonids_trout2_bottom_fin2" d="
				M27.15,47.64l-.07,1.75,0,.92a.58.58,0,0,0,1,.43l1.45-1.45,1.4-1.4C29.56,47.83,28.33,47.74,27.15,47.64Z"/>
			<path id="salmonids_trout2_bottom_fin1" d="
				M14.76,45.83h0a77.5,77.5,0,0,0,7.83,1.44.92.92,0,0,1-.22.26l-3.65,2.93a1,1,0,0,1-1.38-.07L14.5,47.58a1,1,0,0,1,0-1.49Z"/>
			<path id="salmonids_trout2_body" d="
				M63.71,40.14c0,2.51-5.42,5.29-13.56,6.53A66.87,66.87,0,0,1,35,47.15C18.39,45.83,6.29,44,6.29,40.14s12.1-5.73,28.71-7a67.42,67.42,0,0,1,15.15.49C58.29,34.84,63.71,37.62,63.71,40.14Z"/>
			<path id="salmonids_trout2_gills" class="cls-1" d="
				M53.25,46.1a11,11,0,0,1-2-1.54,5.44,5.44,0,0,1,0-7.7"/>
			<path id="salmonids_trout2_fin_side" class="cls-2" d="
				M50.86,44.93l-2.45,5.55a.83.83,0,0,1-1.45.13l-1.82-2.1a.84.84,0,0,1,.07-1L49.48,44a.82.82,0,0,1,.82-.25h0A.83.83,0,0,1,50.86,44.93Z"/>
			<g id="salmonids_trout2_dots">
				<circle id="dot-29" data-name="dot" class="cls-3" cx="58.61" cy="39.43" r="1.43"/>
				<circle id="dot-30" data-name="dot" class="cls-3" cx="17.54" cy="37.42" r="0.7"/>
				<circle id="dot-31" data-name="dot" class="cls-3" cx="22.33" cy="36.92" r="0.7"/>
				<circle id="dot-32" data-name="dot" class="cls-3" cx="27.12" cy="36.29" r="0.7"/>
				<circle id="dot-33" data-name="dot" class="cls-3" cx="31.9" cy="35.86" r="0.7"/>
				<circle id="dot-34" data-name="dot" class="cls-3" cx="36.69" cy="35.32" r="0.7"/>
				<circle id="dot-35" data-name="dot" class="cls-3" cx="41.47" cy="35.22" r="0.7"/>
				<circle id="dot-36" data-name="dot" class="cls-3" cx="46.26" cy="35.22" r="0.7"/>
				<circle id="dot-37" data-name="dot" class="cls-3" cx="20.41" cy="39.59" r="0.7"/>
				<circle id="dot-38" data-name="dot" class="cls-3" cx="25.2" cy="38.96" r="0.7"/>
				<circle id="dot-39" data-name="dot" class="cls-3" cx="29.99" cy="38.52" r="0.7"/>
				<circle id="dot-40" data-name="dot" class="cls-3" cx="34.77" cy="37.99" r="0.7"/>
				<circle id="dot-41" data-name="dot" class="cls-3" cx="39.56" cy="37.89" r="0.7"/>
				<circle id="dot-42" data-name="dot" class="cls-3" cx="44.34" cy="37.89" r="0.7"/>
			</g>
		</g>

		<g id="salmonids_trout1">
			<path id="salmonids_trout1_top_fin" d="
				M55.49,5.72h0A98.38,98.38,0,0,1,65.65,5a1.78,1.78,0,0,0-.25-.36L61.17.39A1.33,1.33,0,0,0,59.4.29l-4,3.17a1.35,1.35,0,0,0-.2,1.9Z"/>
			<path id="salmonids_trout1_tail" d="
				M36.06,13c0-1.74,2.55-3.77,6.22-4.44-1.13-1.51-2.89-2-4.89-2.13a9,9,0,0,1-.91-.09l-4.09-.64a1,1,0,0,0-1,1.54L31.8,8a44.49,44.49,0,0,1,2,4.09,2.53,2.53,0,0,1,0,2.12,43.46,43.46,0,0,1-2,4.1l-.44.73a1,1,0,0,0,1,1.54l4.09-.64a9,9,0,0,1,.91-.09c2.09-.14,3.92-.72,5-2.34C38.68,16.81,36.06,14.76,36.06,13Z"/>
			<path id="salmonids_trout1_bottom_fin2" d="
				M58.36,20.62l-.08,1.75,0,.91a.58.58,0,0,0,1,.43l1.45-1.45,1.4-1.39C60.77,20.8,59.53,20.72,58.36,20.62Z"/>
			<path id="salmonids_trout1_bottom_fin1" d="
				M46,18.81h0a77,77,0,0,0,7.83,1.45,1.32,1.32,0,0,1-.22.26l-3.65,2.92a1,1,0,0,1-1.39-.07l-2.84-2.81a1,1,0,0,1,0-1.49Z"/>
			<path id="salmonids_trout1_body" d="
				M94.92,13.11c0,2.52-5.42,5.3-13.57,6.53a66.72,66.72,0,0,1-15.14.49C49.6,18.8,37.5,17,37.5,13.11s12.1-5.73,28.71-7a67.34,67.34,0,0,1,15.14.48C89.5,7.82,94.92,10.6,94.92,13.11Z"/>
			<path id="salmonids_trout1_gills" class="cls-1" d="M84.46,19.07a11,11,0,0,1-2-1.53,5.44,5.44,0,0,1,0-7.7"/>
			<path id="salmonids_trout1_fin_side" class="cls-2" d="
				M82.07,17.9l-2.45,5.56a.84.84,0,0,1-1.46.12l-1.81-2.1a.84.84,0,0,1,.07-1L80.69,17a.85.85,0,0,1,.81-.25h0A.83.83,0,0,1,82.07,17.9Z"/>
			<g id="salmonids_trout1_dots">
				<circle id="dot-43" data-name="dot" class="cls-3" cx="89.82" cy="12.4" r="1.43"/>
				<circle id="dot-44" data-name="dot" class="cls-3" cx="48.75" cy="10.39" r="0.7"/>
				<circle id="dot-45" data-name="dot" class="cls-3" cx="53.54" cy="9.9" r="0.7"/>
				<circle id="dot-46" data-name="dot" class="cls-3" cx="58.32" cy="9.26" r="0.7"/>
				<circle id="dot-47" data-name="dot" class="cls-3" cx="63.11" cy="8.83" r="0.7"/>
				<circle id="dot-48" data-name="dot" class="cls-3" cx="67.9" cy="8.3" r="0.7"/>
				<circle id="dot-49" data-name="dot" class="cls-3" cx="72.68" cy="8.2" r="0.7"/>
				<circle id="dot-50" data-name="dot" class="cls-3" cx="77.47" cy="8.2" r="0.7"/>
				<circle id="dot-51" data-name="dot" class="cls-3" cx="51.62" cy="12.56" r="0.7"/>
				<circle id="dot-52" data-name="dot" class="cls-3" cx="56.41" cy="11.93" r="0.7"/>
				<circle id="dot-53" data-name="dot" class="cls-3" cx="61.19" cy="11.5" r="0.7"/>
				<circle id="dot-54" data-name="dot" class="cls-3" cx="65.98" cy="10.96" r="0.7"/>
				<circle id="dot-55" data-name="dot" class="cls-3" cx="70.77" cy="10.86" r="0.7"/>
				<circle id="dot-56" data-name="dot" class="cls-3" cx="75.55" cy="10.86" r="0.7"/>
			</g>
		</g>
	</g>
</svg>