<svg id="creek" xmlns="http://www.w3.org/2000/svg" viewBox="0 0 106.54 96.04">
	<defs>
		<style>
			.cls-1{fill:#fff;}
			.cls-2{fill:#587021;}
			#creek:hover {fill: #46C9B3; transition: 0.3s ease; cursor: pointer;}

			#creek_stones { display: none; }

				@media screen and (min-width: 321px) {
				#creek_stones { display: block; }
			}

		</style>
	</defs>

	<defs>
		<script>
			let icon_creek = document.querySelector("#creek");

			function logId() {
				console.log(this.id);
			}

			icon_creek.addEventListener("click", logId);
		</script>
	</defs>

	<title>icon</title>
	<g id="creek">
		<g id="creek_tree3">
			<path id="creek_tree_bottom" class="cls-2" d="
				M81.21,37.85a2.83,2.83,0,0,1,4.9,0l10,17.36,10,17.35a2.84,2.84,0,0,1-2.46,4.25H63.62a2.84,2.84,0,0,1-2.46-4.25l10-17.35Z"/>
			<path id="creek_tree3_middle" class="cls-2" d="
				M83.66,24.62l10,17.23,7.49,13a2.83,2.83,0,0,1-2.45,4.25h-30a2.83,2.83,0,0,1-2.45-4.25l7.49-13Z"/>
			<path id="creek_tree3_top" class="cls-2" d="
				M81.21,21.93a2.83,2.83,0,0,1,4.9,0l4,7,4,7a2.84,2.84,0,0,1-2.46,4.25H75.6a2.84,2.84,0,0,1-2.46-4.25l4-7Z"/>
			<rect id="creek_tree3_trunk" class="cls-2" x="79.93" y="67.89" width="7.47" height="28.14" rx="3.73"/>
		</g>

		<g id="creek_tree2">
			<path id="creek_tree2_bottom"  class="cls-2" d="
				M50.47,19.76a3.23,3.23,0,0,1,5.6,0L67.49,39.54,78.91,59.33a3.22,3.22,0,0,1-2.79,4.84H30.42a3.22,3.22,0,0,1-2.79-4.84L39.05,39.54Z"/>
			<path id="creek_tree2_middle"  class="cls-2" d="
				M53.27,4.67,64.61,24.32l8.55,14.8A3.23,3.23,0,0,1,70.36,44H36.18a3.22,3.22,0,0,1-2.79-4.84l8.54-14.8Z"/>
			<path id="creek_tree2_top" class="cls-2" d="
				M50.47,1.61a3.24,3.24,0,0,1,5.6,0l4.59,8,4.6,8a3.23,3.23,0,0,1-2.8,4.85H44.08a3.23,3.23,0,0,1-2.8-4.85l4.6-8Z"/>
			<rect id="creek_tree2_trunk" class="cls-2" x="49.02" y="54.01" width="8.51" height="32.08" rx="4.26"/>
		</g>

		<g id="creek_tree1">
			<path id="creek_tree1_bottom"  class="cls-2" d="
				M20.43,37.05a2.83,2.83,0,0,1,4.9,0l10,17.35,10,17.36A2.84,2.84,0,0,1,42.92,76H2.84A2.84,2.84,0,0,1,.38,71.76l10-17.36Z"/>
			<path id="creek_tree1_middle" class="cls-2" d="
				M22.88,23.81l10,17.24,7.49,13a2.83,2.83,0,0,1-2.45,4.25h-30A2.83,2.83,0,0,1,5.44,54l7.49-13Z"/>
			<path id="creek_tree1_top" class="cls-2" d="
				M20.43,21.13a2.83,2.83,0,0,1,4.9,0l4,7,4,7a2.84,2.84,0,0,1-2.46,4.25H14.82a2.84,2.84,0,0,1-2.46-4.25l4-7Z"/>
			<rect id="creek_tree1_trunk" class="cls-2" x="19.15" y="67.09" width="7.47" height="28.14" rx="3.73"/>
		</g>

		<path id="creek_water" class="cls-1" d="M86.12,69.68C76.78,59.67,59,57.37,53.77,54c-5.83-3.8,3.92-6.56,3.92-6.56,10.38-4.68,3.33-8.28-1.91-10a23.08,23.08,0,0,0-7.32-1.18,38.79,38.79,0,0,1,5.83,1.91,2.72,2.72,0,0,1,.58,4.6c-5.4,4.44-12.4,4.83-16.48,4.7a10.54,10.54,0,0,0-6.51,1.92A6.28,6.28,0,0,0,29,55.88a8.23,8.23,0,0,0,3.94,5.52c7.25,4.36,4.81,7.08,2.12,8.48a11.71,11.71,0,0,1-4.39,1.25,30.54,30.54,0,0,0-9.82,2.37,39.57,39.57,0,0,0,65.29-3.82Z"/>

		<g id="creek_stones">
			<path id="creek_stone7"  class="cls-2" d="M40.71,54.91c0,1.21-4.4,1.21-4.4,0a2.2,2.2,0,0,1,4.4,0Z"/>
			<path id="creek_stone6" class="cls-2" d="M36.71,56.17c0,.6-2.2.6-2.2,0a1.1,1.1,0,0,1,2.2,0Z"/>
			<path id="creek_stone5" class="cls-2" d="M74.69,70.35c0,.6-2.2.6-2.2,0a1.1,1.1,0,0,1,2.2,0Z"/>
			<path id="creek_stone4" class="cls-2" d="M72.23,69.43c0,.79-2.87.79-2.87,0a1.44,1.44,0,0,1,2.87,0Z"/>
			<path id="creek_stone3"  class="cls-2" d="M70.46,70.37c0,.61-2.2.61-2.2,0a1.1,1.1,0,1,1,2.2,0Z"/>
			<path id="creek_stone2" class="cls-2" d="M43,75c0,.61-2.19.61-2.19,0A1.1,1.1,0,1,1,43,75Z"/>
			<path id="creek_stone1" class="cls-2" d="M41.11,75.33c0,1.22-4.4,1.22-4.4,0a2.2,2.2,0,0,1,4.4,0Z"/>
		</g>
	</g>
</svg>