<svg id="logo" xmlns="http://www.w3.org/2000/svg" viewBox="0 0 202.6 179.23"><defs><style>.cls-1,.cls-3,.cls-7,.cls-8{fill:#fff;}.cls-1,.cls-5{stroke:#9abd4b;stroke-width:4.41px;}.cls-1,.cls-12,.cls-13,.cls-17,.cls-5,.cls-8{stroke-miterlimit:10;}.cls-2{fill:#5d7031;}.cls-3,.cls-8{stroke:#fff;stroke-width:6px;}.cls-11,.cls-14,.cls-15,.cls-16,.cls-3{stroke-linejoin:round;}.cls-4{fill:#666565;}.cls-11,.cls-12,.cls-13,.cls-14,.cls-15,.cls-16,.cls-17,.cls-5,.cls-9{fill:none;}.cls-6{fill:#d8ae58;}.cls-10{fill:#666665;}.cls-11,.cls-12,.cls-13{stroke:#666665;}.cls-11,.cls-16{stroke-linecap:round;}.cls-11,.cls-12,.cls-14,.cls-16{stroke-width:2px;}.cls-13{stroke-width:2.1px;}.cls-14,.cls-15,.cls-16,.cls-17{stroke:#d42027;}</style></defs><title>logo</title><circle class="cls-1" cx="104.66" cy="78.71" r="76.51"/><path class="cls-2" d="M85.93,85.43h2.24L79.7,67.71,71.23,85.43h2.24l-2.24,4.68h2.24L71.23,94.8h7.41v4a1.06,1.06,0,0,0,1.06,1.06h0a1.05,1.05,0,0,0,1.06-1.06v-4h7.41l-2.24-4.69h2.24Z" transform="translate(-5.48 -21.58)"/><path class="cls-2" d="M80.76,94.8h7.41l-2.24-4.69h2.24l-2.24-4.68h2.24L79.7,67.71v32.2h0a1.05,1.05,0,0,0,1.06-1.06Z" transform="translate(-5.48 -21.58)"/><path class="cls-3" d="M163.81,117.71s-10.3-1.19-14.22,7.61c0,0-1.49,6.15-5.45,8,0,0,12.55-3.47,16.67-6.35,0,0,4.59-5.23,6.35-6.53" transform="translate(-5.48 -21.58)"/><path class="cls-2" d="M172.26,81.2h3.3L163.07,55.05,150.57,81.2h3.3l-3.3,6.91h3.3L150.57,95h10.94v6a1.56,1.56,0,0,0,1.56,1.56h0a1.56,1.56,0,0,0,1.56-1.56V95h10.93l-3.3-6.92h3.3Z" transform="translate(-5.48 -21.58)"/><path class="cls-2" d="M164.63,95h10.93l-3.3-6.92h3.3l-3.3-6.91h3.3L163.07,55.05v47.52h0a1.56,1.56,0,0,0,1.56-1.56Z" transform="translate(-5.48 -21.58)"/><path class="cls-2" d="M145.19,83.16h1.92l-7.3-15.27-7.3,15.27h1.93l-1.93,4h1.93l-1.93,4h6.39v3.49a.92.92,0,0,0,.91.92h0a.92.92,0,0,0,.92-.92V91.24h6.38l-1.92-4h1.92Z" transform="translate(-5.48 -21.58)"/><path class="cls-2" d="M140.73,91.24h6.38l-1.92-4h1.92l-1.92-4h1.92l-7.3-15.27V95.65h0a.92.92,0,0,0,.92-.92Z" transform="translate(-5.48 -21.58)"/><path class="cls-2" d="M62.84,82.09h2.83L55,60.47,44.27,82.09H47.1l-2.83,5.72H47.1l-2.83,5.71h9.36v5A1.32,1.32,0,0,0,55,99.76h0a1.32,1.32,0,0,0,1.34-1.29v-5h9.36l-2.83-5.71h2.83Z" transform="translate(-5.48 -21.58)"/><path class="cls-2" d="M56.31,93.52h9.36l-2.83-5.71h2.83l-2.83-5.72h2.83L55,60.47V99.76h0a1.32,1.32,0,0,0,1.34-1.29Z" transform="translate(-5.48 -21.58)"/><path class="cls-4" d="M75.74,102.15" transform="translate(-5.48 -21.58)"/><circle class="cls-5" cx="104.66" cy="78.71" r="76.51"/><path class="cls-4" d="M33,141.27l-.92-1.89-11.73,5.71-.89-1.83,11.73-5.71-.92-1.87,1.94-.94,2.72,5.59Z" transform="translate(-5.48 -21.58)"/><path class="cls-4" d="M38.54,146.48l-13.06,7.77-1-1.75,6.14-3.65L29.48,147l-6.14,3.66-1-1.75,13.06-7.77,1,1.75-5.07,3,1.09,1.84,5.08-3Z" transform="translate(-5.48 -21.58)"/><path class="cls-4" d="M32.08,157.54l-1.16-1.6-3.09,1.75-1.13-1.56,13.7-7,1.19,1.65-11,10.77-1.19-1.66ZM33.66,156l4.06-3.69,0,0-4.8,2.67Z" transform="translate(-5.48 -21.58)"/><path class="cls-4" d="M48.83,159.52l-11.42,10L36.07,168l7-6.17L35.19,167,34.27,166l6.17-7.14,0,0-7,6.17L32,163.42l11.42-10,1.82,2.07-6,7,0,0,7.71-5Z" transform="translate(-5.48 -21.58)"/><path class="cls-4" d="M49.73,163.35l-2.58,2.7,1.5,1.43-1.5,1.57-1.49-1.43-3.42,3.58,2.25,2.15L43,174.92l-3.73-3.55,10.48-11,3.56,3.39-1.5,1.58Z" transform="translate(-5.48 -21.58)"/><path class="cls-4" d="M54.37,170.18l.4-.49c.67-.82.72-1.54.34-1.85a1,1,0,0,0-1.46.35,2.89,2.89,0,0,0-.74,1.8l-.39,3.7a6,6,0,0,1-1.42,3.82c-1.39,1.7-3.23,1.77-4.49.74s-1.51-2.83-.14-4.51l1-1.23,1.59,1.29-.89,1.1c-.59.72-.58,1.32-.17,1.65s1,.19,1.58-.5a3.6,3.6,0,0,0,.79-2l.16-2.87c.23-2,.18-2.65,1.5-4.26s3.1-1.84,4.45-.74,1.42,2.92.14,4.49l-.67.82Z" transform="translate(-5.48 -21.58)"/><path class="cls-4" d="M57.79,185.94l1.65-6.21c-.24-.15-.49-.3-.55-.35l-3.28,5.17-1.71-1.08L62,170.64l2.87,1.82c1.65,1,1.41,3.16.11,5.21s-2.6,2.74-3.78,2.77l-1.66,6.63Zm2.33-8.5.55.35c1.11.7,1.53.71,2.71-1.16.66-1,1-1.94.32-2.37l-1.12-.71Z" transform="translate(-5.48 -21.58)"/><path class="cls-4" d="M63,188.89l-1.79-1,7.29-13.33,1.78,1Z" transform="translate(-5.48 -21.58)"/><path class="cls-4" d="M69,191.85l-2-.9,4.08-14.85,2,.91-3.4,10.82h0l6.06-9.59,2,.91Z" transform="translate(-5.48 -21.58)"/><path class="cls-4" d="M79.82,182.21l-1.28,3.51,1.94.71-.74,2-1.94-.7-1.7,4.64L79,193.47l-.74,2-4.83-1.76,5.2-14.27,4.62,1.68-.74,2Z" transform="translate(-5.48 -21.58)"/><path class="cls-4" d="M84.79,197.41,84.55,191l-.63-.18-1.63,5.9-1.94-.53,4.05-14.65,3.28.91c1.88.52,2.26,2.61,1.62,5-.6,2.17-1.7,3.38-2.81,3.75l.34,6.83Zm-.25-8.8.63.17c1.27.35,1.67.24,2.26-1.9.32-1.17.37-2.14-.4-2.36l-1.27-.35Z" transform="translate(-5.48 -21.58)"/><path class="cls-4" d="M96.7,196.17l-2-.29-.91,3.44-1.9-.28,4.55-14.68,2,.3L98.59,200l-2-.3Zm0-2.21.18-5.48h0l-1.43,5.29Z" transform="translate(-5.48 -21.58)"/><path class="cls-4" d="M107.85,185.49l-1,15.15-2-.14-1.39-8.82h0l-.61,8.68-2-.14,1-15.15,2.14.14,1.3,8.53h0l.58-8.4Z" transform="translate(-5.48 -21.58)"/><path class="cls-4" d="M113.16,189.81l0-1.19c0-.46-.37-1.23-.95-1.22s-1,.8-1,1.26l.19,8.76c0,.46.33,1.23,1,1.22s1.14-.75,1.11-2l0-2.32-1.14,0,0-2.17,3-.06.1,4.68c0,2.06-.84,3.95-2.89,4a3.08,3.08,0,0,1-3.15-3.31l-.19-8.79c0-1.54.74-3.42,3-3.47a3.14,3.14,0,0,1,3.05,3.34l0,1.19Z" transform="translate(-5.48 -21.58)"/><path class="cls-4" d="M122.33,197.75l.21,2.16-4.69.46-1.47-15.12,2-.2,1.27,13Z" transform="translate(-5.48 -21.58)"/><path class="cls-4" d="M124.4,186.46l.62,3.68,2-.35.36,2.14-2,.35.83,4.88,3.06-.52.36,2.14-5.07.86-2.53-15,4.85-.82.36,2.14Z" transform="translate(-5.48 -21.58)"/><path class="cls-4" d="M136.25,197.21l-3.38-5.45-.63.16,1.5,5.93-2,.49-3.72-14.72,3.3-.84c1.89-.48,3.26,1.15,3.86,3.5.55,2.19.2,3.78-.59,4.65l3.67,5.76Zm-4.57-7.52.63-.16c1.28-.33,1.57-.63,1-2.77-.3-1.18-.74-2-1.51-1.86l-1.28.33Z" transform="translate(-5.48 -21.58)"/><path class="cls-4" d="M140.1,184.55l-.21-.6c-.35-1-.94-1.42-1.4-1.26a1.05,1.05,0,0,0-.47,1.43,3,3,0,0,0,1.15,1.57L142.1,188a6,6,0,0,1,2.51,3.23c.72,2.07-.19,3.67-1.73,4.2s-3.2-.2-3.91-2.25l-.52-1.5,1.94-.67.46,1.33c.3.88.82,1.19,1.31,1s.7-.77.41-1.61a3.52,3.52,0,0,0-1.3-1.73l-2.36-1.65c-1.57-1.25-2.16-1.55-2.84-3.52s.07-3.6,1.71-4.17,3.23.33,3.89,2.24l.35,1Z" transform="translate(-5.48 -21.58)"/><path class="cls-4" d="M153.12,187l-1.77.86,1.19,3.35-1.73.84-4.52-14.69,1.83-.89,8.74,12.65L155,190Zm-1.25-1.83-2.93-4.63-.05,0,1.81,5.18Z" transform="translate(-5.48 -21.58)"/><path class="cls-4" d="M156.24,176.89l-.32-.55c-.54-.91-1.2-1.2-1.62-1a1,1,0,0,0-.18,1.49,3,3,0,0,0,1.44,1.32l3.33,1.64a5.94,5.94,0,0,1,3.09,2.65c1.12,1.89.55,3.64-.85,4.47s-3.18.44-4.29-1.43l-.8-1.36,1.76-1,.72,1.22c.48.8,1,1,1.49.73s.53-.89.08-1.66a3.64,3.64,0,0,0-1.62-1.44l-2.64-1.13c-1.79-.92-2.42-1.1-3.48-2.89s-.66-3.55.84-4.43,3.23-.32,4.26,1.42l.54.91Z" transform="translate(-5.48 -21.58)"/><path class="cls-4" d="M162.2,173l-.37-.51c-.61-.87-1.29-1.11-1.69-.83a1,1,0,0,0-.06,1.5,3,3,0,0,0,1.54,1.2l3.45,1.37a6,6,0,0,1,3.3,2.4c1.27,1.79.83,3.58-.5,4.52s-3.13.69-4.38-1.08l-.92-1.3,1.68-1.18.81,1.15c.54.77,1.12.92,1.55.62s.46-.94-.05-1.66a3.63,3.63,0,0,0-1.74-1.31l-2.72-.92c-1.85-.77-2.5-.9-3.7-2.6s-.93-3.48.49-4.48,3.2-.58,4.36,1.07l.61.87Z" transform="translate(-5.48 -21.58)"/><path class="cls-4" d="M168.93,166.26l5.61,6.74c1,1.2,1.5,3.22-.07,4.52-1.72,1.44-3.53.51-4.53-.69l-5.61-6.73c-1-1.2-1.56-3.12.17-4.55C166.06,164.25,167.93,165.06,168.93,166.26Zm-1.55,1.32c-.29-.35-1.07-.77-1.52-.4s-.25,1.28,0,1.6l5.6,6.72c.32.38,1.05.81,1.6.35s.16-1.23-.13-1.58Z" transform="translate(-5.48 -21.58)"/><path class="cls-4" d="M173.67,163.38l-.83-.85c-.32-.33-1.11-.64-1.53-.23a1.18,1.18,0,0,0,.14,1.6l6.15,6.24a1.17,1.17,0,0,0,1.6.16c.41-.41.11-1.2-.21-1.53l-.84-.85,1.46-1.43.84.85a3.05,3.05,0,1,1-4.31,4.27L170,165.35a3.06,3.06,0,1,1,4.33-4.26l.84.85Z" transform="translate(-5.48 -21.58)"/><path class="cls-4" d="M185.51,166.5,184.15,168l-11.31-10.14,1.36-1.52Z" transform="translate(-5.48 -21.58)"/><path class="cls-4" d="M186.74,159.44,185.53,161l2.53,2.49L186.87,165l-10.48-11.24,1.26-1.6L191,159.71l-1.26,1.6Zm-1.92-1.1-4.66-2.89,0,0,3.89,3.87Z" transform="translate(-5.48 -21.58)"/><path class="cls-4" d="M183.88,147.09l-1.19,1.73,10.75,7.38-1.15,1.68-10.75-7.38-1.18,1.71L178.59,151l3.52-5.13Z" transform="translate(-5.48 -21.58)"/><path class="cls-4" d="M196.71,151l-1.05,1.75-13-7.82,1.05-1.74Z" transform="translate(-5.48 -21.58)"/><path class="cls-4" d="M190,138.2l7.79,4c1.39.72,2.62,2.39,1.69,4.19-1,2-3,1.85-4.44,1.13l-7.79-4c-1.39-.72-2.64-2.26-1.61-4.26C186.55,137.45,188.58,137.48,190,138.2Zm-.91,1.82c-.41-.21-1.29-.3-1.56.22s.27,1.27.63,1.46l7.77,4c.45.23,1.29.33,1.62-.3s-.33-1.2-.73-1.41Z" transform="translate(-5.48 -21.58)"/><path class="cls-4" d="M190,130,204,135.78l-.78,1.88-8.81-1.47v0l8.05,3.32-.78,1.88-14-5.79.81-2,8.51,1.47v0l-7.78-3.21Z" transform="translate(-5.48 -21.58)"/><path class="cls-4" d="M80.64,155.5H79.12l-.3,2.05H77.33l1.81-8.82h1.58l1.82,8.82H81Zm-.25-1.28-.48-3.16h0l-.5,3.16Z" transform="translate(-5.48 -21.58)"/><path class="cls-4" d="M89,148.73v8.82H87.41l-1.55-5.05h0v5.05H84.26v-8.82h1.66l1.46,4.89h0v-4.89Z" transform="translate(-5.48 -21.58)"/><path class="cls-4" d="M93.94,151.29v-.7a.76.76,0,0,0-1.51,0v5.1a.76.76,0,0,0,.79.71c.59,0,.9-.41.9-1.13v-1.35h-.89v-1.26h2.3v2.72a2.15,2.15,0,0,1-2.31,2.28c-1.75,0-2.38-1.08-2.38-2v-5.11c0-.89.63-2,2.38-2a2.09,2.09,0,0,1,2.31,2v.7Z" transform="translate(-5.48 -21.58)"/><path class="cls-4" d="M101,156.29v1.26H97.36v-8.82h1.57v7.56Z" transform="translate(-5.48 -21.58)"/><path class="cls-4" d="M104.29,150v2.17h1.6v1.26h-1.6v2.87h2.41v1.26h-4v-8.82h3.81V150Z" transform="translate(-5.48 -21.58)"/><path class="cls-4" d="M112,157.55l-1.5-3.55H110v3.55h-1.57v-8.82h2.64c1.51,0,2.23,1.11,2.23,2.52a2.65,2.65,0,0,1-1.32,2.53l1.66,3.77Zm-2-4.89h.5c1,0,1.3-.13,1.3-1.41,0-.71-.17-1.26-.78-1.26h-1Z" transform="translate(-5.48 -21.58)"/><path class="cls-4" d="M118,151.2v-.37c0-.61-.32-1-.7-1a.68.68,0,0,0-.71.69,1.45,1.45,0,0,0,.44,1.08l1.58,1.8a3,3,0,0,1,1,2.25,2.08,2.08,0,0,1-2.33,2,2,2,0,0,1-2.3-2v-.92h1.59v.82c0,.54.3.8.71.8a.71.71,0,0,0,.7-.8,1.78,1.78,0,0,0-.51-1.2l-1.31-1.35c-.84-1-1.19-1.26-1.19-2.47a2.32,2.32,0,0,1,4.59,0v.62Z" transform="translate(-5.48 -21.58)"/><path class="cls-4" d="M121.42,156H123v1.57h-1.57Z" transform="translate(-5.48 -21.58)"/><path class="cls-4" d="M129.46,150.58v5.09a2.08,2.08,0,0,1-2.29,2c-1.73,0-2.35-1.08-2.35-2v-5.09c0-.91.62-2,2.35-2A2.06,2.06,0,0,1,129.46,150.58Zm-1.58,0a.75.75,0,0,0-1.49,0v5.08a.76.76,0,0,0,.78.75.78.78,0,0,0,.71-.75Z" transform="translate(-5.48 -21.58)"/><path class="cls-4" d="M134.87,157.55l-1.5-3.55h-.5v3.55H131.3v-8.82h2.64c1.51,0,2.23,1.11,2.23,2.52a2.64,2.64,0,0,1-1.33,2.53l1.67,3.77Zm-2-4.89h.5c1,0,1.3-.13,1.3-1.41,0-.71-.17-1.26-.78-1.26h-1Z" transform="translate(-5.48 -21.58)"/><path class="cls-4" d="M141.05,151.29v-.7a.76.76,0,0,0-1.52,0v5.1a.77.77,0,0,0,.8.71c.59,0,.89-.41.89-1.13v-1.35h-.88v-1.26h2.29v2.72a2.14,2.14,0,0,1-2.3,2.28c-1.75,0-2.38-1.08-2.38-2v-5.11c0-.89.63-2,2.38-2a2.08,2.08,0,0,1,2.3,2v.7Z" transform="translate(-5.48 -21.58)"/><path class="cls-4" d="M86.2,52.84v2.41H88v1.4H86.2v3.2h2.68v1.4H84.45V51.44h4.23v1.4Z" transform="translate(-5.48 -21.58)"/><path class="cls-4" d="M94,54.19v-.41c0-.69-.36-1.06-.78-1.06a.76.76,0,0,0-.79.77,1.63,1.63,0,0,0,.49,1.2l1.75,2a3.33,3.33,0,0,1,1.14,2.5,2.31,2.31,0,0,1-2.59,2.2,2.27,2.27,0,0,1-2.55-2.2v-1h1.76v.91c0,.61.34.9.79.9a.8.8,0,0,0,.78-.9,2,2,0,0,0-.57-1.33L92,56.24c-.92-1.09-1.32-1.4-1.32-2.74a2.58,2.58,0,0,1,5.1,0v.69Z" transform="translate(-5.48 -21.58)"/><path class="cls-4" d="M102.93,52.83h-1.81v8.42H99.37V52.83H97.58V51.44h5.35Z" transform="translate(-5.48 -21.58)"/><path class="cls-4" d="M104,59.49h1.76v1.76H104Z" transform="translate(-5.48 -21.58)"/><path class="cls-4" d="M111.7,51.44h1.75v9.81H111.7V52.84h-.79v-1Z" transform="translate(-5.48 -21.58)"/><path class="cls-4" d="M115.47,55.26c0-.14,0-1.24,0-1.37a2.46,2.46,0,0,1,2.77-2.58,2.33,2.33,0,0,1,2.57,2.2v4.93a2.73,2.73,0,0,1-2.66,2.93,2.26,2.26,0,0,1-2.44-2.2V58.4h1.68v.77a.76.76,0,0,0,.76.8c.67,0,.89-.74.89-1.53V56.89a1.44,1.44,0,0,1-1.19.55A2.14,2.14,0,0,1,115.47,55.26Zm1.79,0a.82.82,0,0,0,.87.79c.56,0,.92-.27.92-.52v-2a.86.86,0,0,0-.8-.81c-.7,0-1,.37-1,1.17C117.27,54,117.26,55.14,117.26,55.26Z" transform="translate(-5.48 -21.58)"/><path class="cls-4" d="M128.47,58.44a2.83,2.83,0,1,1-5.65,0A2.52,2.52,0,0,1,124.43,56a2.48,2.48,0,0,1-1.29-2.17,2.27,2.27,0,0,1,2.45-2.47,2.29,2.29,0,0,1,2.55,2.47A2.46,2.46,0,0,1,126.85,56,2.53,2.53,0,0,1,128.47,58.44Zm-1.79,0c0-.91-.24-1.59-1-1.75-.82.16-1.06.84-1.06,1.75s.35,1.53,1.2,1.53C126.42,60,126.68,59.16,126.68,58.44Zm-1.89-4.53a.91.91,0,1,0,1.7,0c0-.7-.28-1.19-.82-1.19S124.79,53.22,124.79,53.91Z" transform="translate(-5.48 -21.58)"/><path class="cls-4" d="M135.81,57.42c0,.14,0,1.25,0,1.37A2.45,2.45,0,0,1,133,61.37a2.32,2.32,0,0,1-2.57-2.2V54.26a2.74,2.74,0,0,1,2.64-2.95,2.26,2.26,0,0,1,2.45,2.2v.68h-1.7v-.66a.75.75,0,0,0-.75-.81c-.68,0-.87.75-.87,1.54V55.8a1.35,1.35,0,0,1,1.19-.55A2.14,2.14,0,0,1,135.81,57.42Zm-1.79,0a.81.81,0,0,0-.89-.77c-.54,0-.89.25-.89.51v2a.84.84,0,0,0,.8.8c.67,0,1-.38,1-1.18C134,58.68,134,57.56,134,57.42Z" transform="translate(-5.48 -21.58)"/><circle class="cls-6" cx="104.75" cy="14.11" r="3.91"/><ellipse class="cls-7" cx="108.48" cy="33.45" rx="0.76" ry="0.47" transform="translate(-1.96 55.1) rotate(-39.52)"/><circle class="cls-6" cx="82.59" cy="19.3" r="3.91"/><ellipse class="cls-7" cx="86.31" cy="38.63" rx="0.76" ry="0.47" transform="translate(-10.33 42.18) rotate(-39.52)"/><circle class="cls-6" cx="126.15" cy="19.3" r="3.91"/><ellipse class="cls-7" cx="129.88" cy="38.63" rx="0.76" ry="0.47" transform="translate(-0.37 69.91) rotate(-39.52)"/><ellipse class="cls-7" cx="82.59" cy="20.59" rx="1.98" ry="1.04"/><ellipse class="cls-7" cx="104.75" cy="15.45" rx="1.98" ry="1.04"/><ellipse class="cls-7" cx="126.15" cy="20.59" rx="1.98" ry="1.04"/><path class="cls-8" d="M122.37,91.58s-2.85-1.51-4.25-1.56c0,0-11.15-10.55-13.74-12,0,0-6.74,11-9.7,11.89,0,0-.82,1,2.67,1.26,0,0,3.3,0,3.64.39,0,0,1.16.43,1.07,1.06" transform="translate(-5.48 -21.58)"/><path class="cls-8" d="M74.78,94.08a29.14,29.14,0,0,0-12.84-3.5s-2.33.5-4.16,4.33c0,0,0,.67,1.16,1.34" transform="translate(-5.48 -21.58)"/><path class="cls-8" d="M54.5,112.23C53,112,41.31,117,41.31,117,17.67,131.76,8.48,129.57,8.48,129.57c0-5,8.94-19.19,8.94-19.19,4.69-5.76,1.92-9.6,1.92-9.6C8.88,79.24,10.17,79.12,10.17,79.12,15.94,79,38.11,89.26,38.11,89.26A106.75,106.75,0,0,0,48.56,94l5.1,2c1.46.84,13.21.5,13.21.5,23.59-6.77,94.07-6.31,94.07-6.31l7.78.57s30.44,3.68,35.06,11.93c0,0-7.23,3.77-11.48,7.77,0,0,6.11-.65,7.48-1l5.3-.41s.41.43-7.67,6.28a80.78,80.78,0,0,1-12.5,4.75l-7.33,1.55c-6,1.51-11.69,4.38-16.77,5.42,0,0-14.73,3-39,1.32s-16.63-2.73-35.71-7.34S66.5,114.15,54.5,112.23Z" transform="translate(-5.48 -21.58)"/><path class="cls-8" d="M121.79,122s-3.62,15.24-10.26,17.36a26.11,26.11,0,0,1-5.1-8.4,28.84,28.84,0,0,1-1.69-6.39s.3-2.42,2.26-2.57c0,0,3.17,1.06,4.68,0" transform="translate(-5.48 -21.58)"/><path class="cls-8" d="M82,118.63a39.19,39.19,0,0,1-9.8,10.09s-2.81,3-4.06,2.71c-.74-.17-.28-2.15-.1-4.88a22.05,22.05,0,0,0-5.42-8.65s-1.83-1.46,0-2.32c0,0,.37.13,5-1" transform="translate(-5.48 -21.58)"/><text x="-5.48" y="-21.58"/><path class="cls-9" d="M44.27,116.61" transform="translate(-5.48 -21.58)"/><path class="cls-9" d="M44.27,91.19" transform="translate(-5.48 -21.58)"/><polygon class="cls-10" points="8.01 64.57 29.42 72.77 7.38 66.47 8.01 64.57"/><polygon class="cls-10" points="12.28 74.67 23.75 76.99 12.05 76.66 12.28 74.67"/><polygon class="cls-10" points="13.44 85.23 23.75 83.96 13.88 87.18 13.44 85.23"/><polygon class="cls-10" points="10.24 90.88 27.42 88.06 10.68 92.83 10.24 90.88"/><polygon class="cls-10" points="6.26 97.18 28.42 90.78 6.9 99.08 6.26 97.18"/><polygon class="cls-10" points="3.25 102.72 28.15 95.03 3.91 104.61 3.25 102.72"/><path class="cls-10" d="M191.37,100.47a.85.85,0,0,0-.64-.83c-.07,0-.54-.16-.67-.18a2.23,2.23,0,0,0-1,0,3.64,3.64,0,0,0-1.1.42,2.05,2.05,0,0,0-1,1,1.14,1.14,0,0,0,.28,1.37c.89.43,1.44,1.13,2.44.85a1.16,1.16,0,0,0,.88-.37,1.88,1.88,0,0,0,.48-.94,2,2,0,0,0,.21-.57" transform="translate(-5.48 -21.58)"/><path class="cls-11" d="M48.69,113.43s4.59-6.26,44.91,9.76c0,0-.76-.11,11.14,3.3" transform="translate(-5.48 -21.58)"/><path class="cls-12" d="M119.83,128.2c5.55.2,16.6.58,24.31.47,0,0,1.61,0,4.24-.11" transform="translate(-5.48 -21.58)"/><path class="cls-10" d="M163.8,117.81a16.76,16.76,0,0,0-4.24.34c-.35.06-.69.17-1,.25s-.67.21-1,.31a10.52,10.52,0,0,0-1,.39,8.25,8.25,0,0,0-.95.45c-.3.18-.62.33-.9.53l-.85.6a10.13,10.13,0,0,0-.79.68,4.52,4.52,0,0,0-.72.73c-.22.27-.46.51-.67.79l-.57.86a15.8,15.8,0,0,0-1,1.82l0-.1a18.83,18.83,0,0,1-1.91,4.79,12.77,12.77,0,0,1-1.57,2.12,8,8,0,0,1-1,.91,4.49,4.49,0,0,1-.57.4l-.61.35-.55-1.5c2.82-.86,5.62-1.88,8.4-2.89,1.38-.52,2.76-1,4.12-1.56.68-.26,1.35-.55,2-.84s1.28-.62,1.87-1l-.14.13c1.06-1.1,2.16-2.16,3.29-3.2.56-.52,1.15-1,1.74-1.5a15.77,15.77,0,0,1,1.88-1.36.11.11,0,0,1,.14,0,.12.12,0,0,1,0,.13c-1.06,1.07-2,2.29-2.94,3.46l-2.84,3.54a.49.49,0,0,1-.13.12h0c-.33.23-.66.47-1,.68l-1,.59c-.68.36-1.36.71-2.06,1s-1.39.61-2.09.88-1.41.54-2.13.77c-1.42.49-2.86.93-4.31,1.33s-2.88.8-4.35,1.17a.8.8,0,0,1-.56-1.49h0l.48-.25a2.74,2.74,0,0,0,.46-.29,6.5,6.5,0,0,0,.87-.7,11.8,11.8,0,0,0,1.46-1.81,15.66,15.66,0,0,0,1.13-2.1,17.3,17.3,0,0,0,.83-2.24l0-.06v0a19.56,19.56,0,0,1,1.14-1.93l.66-.91c.24-.29.52-.54.77-.81a5.86,5.86,0,0,1,.83-.75c.3-.23.57-.48.88-.68l.95-.59c.32-.19.66-.32,1-.49a10,10,0,0,1,1-.42,9.19,9.19,0,0,1,1-.34c.35-.09.7-.21,1.06-.27s.71-.15,1.07-.19a17.52,17.52,0,0,1,4.34-.09.09.09,0,0,1,.09.11A.12.12,0,0,1,163.8,117.81Z" transform="translate(-5.48 -21.58)"/><path class="cls-10" d="M122.37,91.58c-.71-.28-1.44-.52-2.16-.74-.35-.11-.72-.2-1.08-.28a4.24,4.24,0,0,0-1-.12H118l-.15-.12c-2.36-1.93-4.67-3.9-7-5.86-1.15-1-2.31-2-3.48-2.91-.57-.49-1.15-1-1.74-1.42-.29-.23-.58-.46-.87-.67s-.58-.39-.85-.56l1.33-.35c-.68,1.12-1.41,2.19-2.14,3.27S101.61,84,100.8,85s-1.63,2-2.54,3c-.47.48-.94,1-1.47,1.4a9.36,9.36,0,0,1-.85.63,3.67,3.67,0,0,1-1.07.51l.32-.21a.27.27,0,0,0,.07-.15.29.29,0,0,0,0-.14s0,0,0,0l.05.06a1.11,1.11,0,0,0,.25.14,2.52,2.52,0,0,0,.33.13,11.77,11.77,0,0,0,1.55.33h0c.63,0,1.24.1,1.87.18.31,0,.62.08.93.15a4.05,4.05,0,0,1,.47.12l.25.09a.74.74,0,0,1,.29.19l-.09-.06a2.47,2.47,0,0,1,.69.51.82.82,0,0,1,.3.76.73.73,0,0,0-.45-.58,3,3,0,0,0-.7-.28l-.09-.06s-.06,0-.11,0l-.2,0-.44,0h-.9c-.61,0-1.22,0-1.82.07h0a12.21,12.21,0,0,1-1.77-.18,4.77,4.77,0,0,1-.47-.13,2.64,2.64,0,0,1-.5-.22,1.3,1.3,0,0,1-.54-.57,1.16,1.16,0,0,1-.09-.56,1.06,1.06,0,0,1,.23-.53l.08-.11.24-.1a4.58,4.58,0,0,0,1.29-1A16.61,16.61,0,0,0,97,86.93c.8-1,1.56-2,2.29-3s1.46-2.1,2.16-3.16,1.39-2.16,2.07-3.23l.54-.85.79.5a11.07,11.07,0,0,1,1,.71c.33.24.63.48.93.73.61.49,1.19,1,1.77,1.49,1.15,1,2.26,2.06,3.37,3.1,2.2,2.12,4.35,4.28,6.42,6.52l-.27-.12a5.41,5.41,0,0,1,1.2.32,11.23,11.23,0,0,1,1.06.49A17.15,17.15,0,0,1,122.37,91.58Z" transform="translate(-5.48 -21.58)"/><path class="cls-10" d="M116.94,91.62,105.06,81l12.53,9.91a.5.5,0,0,1,.08.7.5.5,0,0,1-.7.08Z" transform="translate(-5.48 -21.58)"/><path class="cls-10" d="M112.13,91.56l-7.87-7.66,8.54,6.92a.5.5,0,0,1-.63.78Z" transform="translate(-5.48 -21.58)"/><path class="cls-10" d="M107.84,91.21,103,86.53l5.52,3.91a.5.5,0,0,1,.12.7.51.51,0,0,1-.7.12Z" transform="translate(-5.48 -21.58)"/><path class="cls-10" d="M104.19,91.79l-3.9-3.68L104.8,91a.49.49,0,0,1,.16.69.51.51,0,0,1-.7.16Z" transform="translate(-5.48 -21.58)"/><path class="cls-10" d="M74.78,94.08c-1.1-.34-2.16-.64-3.24-.91-.53-.14-1.07-.25-1.6-.38s-1.07-.22-1.6-.34-1.07-.22-1.61-.29-1.07-.18-1.6-.25-1.08-.13-1.62-.21l-1.62-.16.26,0-.2.06-.28.12a3.91,3.91,0,0,0-.56.31,9.18,9.18,0,0,0-1.06.85,9.76,9.76,0,0,0-1,1.06,13.21,13.21,0,0,0-.88,1.2l0-.21s0,0,0,0,0,0,0,.06a.55.55,0,0,0,0,.17,1.73,1.73,0,0,0,.15.36,3.91,3.91,0,0,0,.53.74,2.75,2.75,0,0,1-.92-.36,1.75,1.75,0,0,1-.42-.36,1.46,1.46,0,0,1-.17-.24l-.08-.16a.64.64,0,0,1-.05-.22v0l.05-.16A14.67,14.67,0,0,1,58,93.21a10.43,10.43,0,0,1,.89-1.41,7,7,0,0,1,1.2-1.24,6.46,6.46,0,0,1,.74-.51,4.13,4.13,0,0,1,.42-.22,2,2,0,0,1,.53-.19l.1,0H62a24.74,24.74,0,0,1,3.44.34,24.11,24.11,0,0,1,3.35.83A21.11,21.11,0,0,1,72,92.13,13.08,13.08,0,0,1,74.78,94.08Z" transform="translate(-5.48 -21.58)"/><path class="cls-10" d="M158.27,96.87l-.12-.18a.57.57,0,0,0-.45-.58l-.47-.14a1.74,1.74,0,0,0-.72,0,2.74,2.74,0,0,0-.77.3,2.38,2.38,0,0,0-.83,1c-.16.25-.2.64.08.77a2.9,2.9,0,0,0,2,.53.86.86,0,0,0,.63-.26,1.42,1.42,0,0,0,.33-.66,1.74,1.74,0,0,0,.15-.4C158.17,97.27,158.31,97,158.27,96.87Z" transform="translate(-5.48 -21.58)"/><path class="cls-10" d="M143.9,97a.41.41,0,0,0-.07-.11.35.35,0,0,0-.27-.35l-.28-.08a1.08,1.08,0,0,0-.44,0,1.76,1.76,0,0,0-.47.18,1.44,1.44,0,0,0-.5.59c-.09.15-.12.39,0,.47a1.8,1.8,0,0,0,1.19.32.53.53,0,0,0,.38-.16.76.76,0,0,0,.2-.4,1,1,0,0,0,.09-.24C143.84,97.26,143.93,97.08,143.9,97Z" transform="translate(-5.48 -21.58)"/><path class="cls-10" d="M69.65,93.69a.75.75,0,0,0-.07-.12.35.35,0,0,0-.27-.35L69,93.14a.93.93,0,0,0-.44,0,1.48,1.48,0,0,0-.47.18,1.38,1.38,0,0,0-.5.59c-.09.15-.12.38,0,.46a1.74,1.74,0,0,0,1.19.32.48.48,0,0,0,.38-.15.76.76,0,0,0,.2-.4,1,1,0,0,0,.09-.24C69.59,93.93,69.68,93.74,69.65,93.69Z" transform="translate(-5.48 -21.58)"/><path class="cls-10" d="M61.79,94.72a.3.3,0,0,0,0-.08.23.23,0,0,0-.17-.22s-.15,0-.19,0a.53.53,0,0,0-.28,0,.79.79,0,0,0-.3.12.89.89,0,0,0-.32.37c-.06.1-.08.25,0,.3a1.15,1.15,0,0,0,.77.21.35.35,0,0,0,.24-.1.5.5,0,0,0,.13-.26.76.76,0,0,0,.06-.16S61.81,94.75,61.79,94.72Z" transform="translate(-5.48 -21.58)"/><path class="cls-10" d="M64.77,92.72l0-.06a.17.17,0,0,0-.13-.16l-.13,0a.5.5,0,0,0-.21,0,.85.85,0,0,0-.22.09.73.73,0,0,0-.24.28c0,.07-.05.18,0,.21a.83.83,0,0,0,.56.16.25.25,0,0,0,.18-.08.34.34,0,0,0,.09-.19.37.37,0,0,0,0-.11S64.79,92.74,64.77,92.72Z" transform="translate(-5.48 -21.58)"/><path class="cls-13" d="M160.81,127c5.08-1,10.75-3.91,16.77-5.42l7.33-1.55a80.78,80.78,0,0,0,12.5-4.75c8.08-5.85,7.67-6.28,7.67-6.28l-5.3.41c-1.37.37-7.48,1-7.48,1,4.25-4,11.48-7.77,11.48-7.77-4.62-8.25-35.06-11.93-35.06-11.93l-7.78-.57s-70.48-.46-94.07,6.31c0,0-11.75.34-13.21-.5l-5.1-2a106.75,106.75,0,0,1-10.45-4.7S15.94,79,10.17,79.12c0,0-1.29.12,9.17,21.66,0,0,2.77,3.84-1.92,9.6,0,0-8.94,14.19-8.94,19.19,0,0,9.19,2.19,32.83-12.62,0,0,11.7-5,13.19-4.72" transform="translate(-5.48 -21.58)"/><path class="cls-14" d="M197.7,108.14" transform="translate(-5.48 -21.58)"/><path class="cls-10" d="M148.53,102.53l-.07-.12a.35.35,0,0,0-.27-.35l-.29-.08a.89.89,0,0,0-.43,0,1.32,1.32,0,0,0-1,.77c-.09.15-.11.38,0,.46a1.77,1.77,0,0,0,1.2.32.48.48,0,0,0,.38-.15.84.84,0,0,0,.2-.4,1,1,0,0,0,.09-.24C148.47,102.77,148.56,102.58,148.53,102.53Z" transform="translate(-5.48 -21.58)"/><path class="cls-10" d="M114.57,98.34l-.06-.11a.36.36,0,0,0-.28-.35L114,97.8a.93.93,0,0,0-.44,0,1.23,1.23,0,0,0-.46.18,1.44,1.44,0,0,0-.51.58c-.09.15-.12.39,0,.47a1.75,1.75,0,0,0,1.2.32.52.52,0,0,0,.37-.16.77.77,0,0,0,.2-.39.63.63,0,0,0,.09-.25C114.51,98.58,114.6,98.4,114.57,98.34Z" transform="translate(-5.48 -21.58)"/><path class="cls-10" d="M79.69,100.33a1.74,1.74,0,0,0-.11-.18.58.58,0,0,0-.45-.58l-.47-.14a1.74,1.74,0,0,0-.72,0,2.74,2.74,0,0,0-.77.3,2.41,2.41,0,0,0-.84,1c-.15.25-.19.64.08.77a2.94,2.94,0,0,0,2,.53.8.8,0,0,0,.62-.26,1.36,1.36,0,0,0,.34-.65,1.53,1.53,0,0,0,.14-.41C79.59,100.73,79.74,100.43,79.69,100.33Z" transform="translate(-5.48 -21.58)"/><path class="cls-10" d="M83.18,109.26a1.08,1.08,0,0,0-.11-.18.59.59,0,0,0-.45-.59c-.05,0-.38-.11-.47-.13a1.74,1.74,0,0,0-.72,0,2.74,2.74,0,0,0-.77.3,2.48,2.48,0,0,0-.84,1c-.15.25-.19.64.09.77a2.9,2.9,0,0,0,2,.53.88.88,0,0,0,.62-.26,1.35,1.35,0,0,0,.34-.66,1.74,1.74,0,0,0,.15-.4C83.08,109.66,83.23,109.35,83.18,109.26Z" transform="translate(-5.48 -21.58)"/><path class="cls-10" d="M90.46,102.53a.75.75,0,0,1-.07-.12.35.35,0,0,0-.27-.35l-.29-.08a.93.93,0,0,0-.44,0,1.52,1.52,0,0,0-.46.18,1.47,1.47,0,0,0-.51.59c-.09.15-.12.38,0,.46a1.75,1.75,0,0,0,1.2.32.48.48,0,0,0,.38-.15.94.94,0,0,0,.2-.4,1,1,0,0,0,.09-.24C90.4,102.77,90.49,102.58,90.46,102.53Z" transform="translate(-5.48 -21.58)"/><path class="cls-10" d="M104.15,96.28l-.05-.08a.26.26,0,0,0-.2-.25l-.2-.06a.81.81,0,0,0-.31,0,1.71,1.71,0,0,0-.34.13,1.05,1.05,0,0,0-.36.42c-.07.11-.09.28,0,.34a1.27,1.27,0,0,0,.85.23.34.34,0,0,0,.27-.12.55.55,0,0,0,.15-.28.58.58,0,0,0,.06-.17S104.17,96.32,104.15,96.28Z" transform="translate(-5.48 -21.58)"/><path class="cls-10" d="M125.66,101.79l0-.08a.25.25,0,0,0-.2-.25l-.2-.06a.65.65,0,0,0-.31,0,.93.93,0,0,0-.34.13,1.05,1.05,0,0,0-.36.42c-.07.11-.09.28,0,.33.28.13.56.32.86.23a.33.33,0,0,0,.27-.11.64.64,0,0,0,.15-.28,1,1,0,0,0,.06-.18S125.68,101.83,125.66,101.79Z" transform="translate(-5.48 -21.58)"/><path class="cls-10" d="M156.06,103.39l-.05-.08a.26.26,0,0,0-.2-.25l-.2-.06a.65.65,0,0,0-.31,0,1,1,0,0,0-.34.13,1.05,1.05,0,0,0-.36.42c-.07.11-.09.28,0,.34a1.27,1.27,0,0,0,.85.23.38.38,0,0,0,.27-.12,1.49,1.49,0,0,0,.21-.46C156,103.56,156.08,103.43,156.06,103.39Z" transform="translate(-5.48 -21.58)"/><path class="cls-10" d="M196.43,107.45s-4.18,4.18-5.63,3.46c0,0,7.36,4,15.37-2.77Z" transform="translate(-5.48 -21.58)"/><path class="cls-10" d="M195.94,103.72s-1.15.59-2.82,1.57c-.83.49-1.79,1.07-2.8,1.73a21,21,0,0,0-2.95,2.26,3.2,3.2,0,0,0-.92,1.34.38.38,0,0,0,0,.22.76.76,0,0,0,.15.23.93.93,0,0,0,.5.26,3.29,3.29,0,0,0,1.47-.15,5.53,5.53,0,0,0,.72-.24,4.57,4.57,0,0,0,.68-.26c.88-.35,1.59-.73,2.09-1l.81-.39.06.09-.67.6a8.21,8.21,0,0,1-.81.64,9.88,9.88,0,0,1-1.12.75,7.18,7.18,0,0,1-1.47.71,3.83,3.83,0,0,1-2,.25,1.64,1.64,0,0,1-1.38-1.93,3.85,3.85,0,0,1,1.3-1.73,21.68,21.68,0,0,1,3.19-2.17c1-.61,2.06-1.12,2.94-1.54,1.74-.85,2.93-1.35,2.93-1.35Z" transform="translate(-5.48 -21.58)"/><path class="cls-10" d="M171.86,96.05a30.13,30.13,0,0,0-3.73,6,18,18,0,0,0-1.82,6.59,10.24,10.24,0,0,0,.34,3.28,9,9,0,0,0,1.42,2.89,16.13,16.13,0,0,0,2.19,2.42,24.92,24.92,0,0,0,2.66,2.08l.25.17.05.12c.05.1.15.27.24.41a3.19,3.19,0,0,0,.3.42,5.11,5.11,0,0,0,.73.74c.14.11.29.2.44.3a2.62,2.62,0,0,0,.48.22,2.31,2.31,0,0,0,.53.15,3.42,3.42,0,0,0,.57.07l0,.2a3.82,3.82,0,0,1-.6.19,2.81,2.81,0,0,1-.65.06,3,3,0,0,1-.67-.07,3,3,0,0,1-.65-.2,4.36,4.36,0,0,1-1.16-.68,5.37,5.37,0,0,1-.51-.44,4.47,4.47,0,0,1-.47-.55l.3.29a14.37,14.37,0,0,1-1.64-.87,12.23,12.23,0,0,1-1.55-1.07,10.76,10.76,0,0,1-2.55-2.86,11.57,11.57,0,0,1-1.5-7.39,18.4,18.4,0,0,1,2.45-6.88,28.9,28.9,0,0,1,4.36-5.7Z" transform="translate(-5.48 -21.58)"/><path class="cls-10" d="M174.38,101.27a14.48,14.48,0,0,0-.52,1.85,17.16,17.16,0,0,0-.32,1.88,15,15,0,0,0-.12,1.89c0,.31,0,.63,0,.94l.08.93.18.91a6.88,6.88,0,0,0,.24.89,4.11,4.11,0,0,0,.31.85,5.62,5.62,0,0,0,.39.82l.47.77c.17.24.38.46.57.69l.29.34.34.29.67.59-.18-.11a20.62,20.62,0,0,0,2.66.75,9,9,0,0,0,1.31.19,3.4,3.4,0,0,0,.56,0,.69.69,0,0,0,.19,0c.07,0,0,0,.05,0l-.45.74v-1l0-1a18.8,18.8,0,0,0-.22-1.89c0-.31-.13-.6-.19-.9a6.59,6.59,0,0,0-.29-.82,1.37,1.37,0,0,0-.19-.36,1.94,1.94,0,0,0-.21-.34,3.22,3.22,0,0,0-.24-.28l-.28-.24-.38-.34,0-.2a13.37,13.37,0,0,1-.1-1.4,13,13,0,0,1,0-1.39,6.42,6.42,0,0,1,.73-2.67l.18.06a9.66,9.66,0,0,0,.12,2.58c.07.43.16.85.25,1.27s.21.84.31,1.22l-.4-.53.57.34a3.37,3.37,0,0,1,.5.42,2.37,2.37,0,0,1,.42.48,3.23,3.23,0,0,1,.34.51,7.52,7.52,0,0,1,.51,1.08,8.62,8.62,0,0,1,.32,1.1,11,11,0,0,1,.28,2.19,9.91,9.91,0,0,1,0,1.09c0,.37,0,.71-.09,1.11l-.07.55-.37.18a2.7,2.7,0,0,1-.63.23,3.32,3.32,0,0,1-.52.06,5.85,5.85,0,0,1-.87-.06,11.28,11.28,0,0,1-1.52-.35,24.75,24.75,0,0,1-2.81-1l-.13-.06-.06,0-.74-.73L175,115l-.31-.42c-.2-.28-.42-.55-.6-.84l-.48-.92a7,7,0,0,1-.38-1,5.74,5.74,0,0,1-.28-1,8.68,8.68,0,0,1-.2-1l-.1-1v-1c0-.33,0-.66.06-1a14.1,14.1,0,0,1,.29-1.95,17.72,17.72,0,0,1,1.22-3.71Z" transform="translate(-5.48 -21.58)"/><path class="cls-15" d="M19.13,107.78" transform="translate(-5.48 -21.58)"/><path class="cls-15" d="M15.06,115.61" transform="translate(-5.48 -21.58)"/><path class="cls-10" d="M191.58,103.77a3.82,3.82,0,0,1-1.11.58,4.53,4.53,0,0,1-1.25.26,6.94,6.94,0,0,1-1.47-.18,3.76,3.76,0,0,1-.73-.2,3.64,3.64,0,0,1-1.25-.68c-.15-.16-.3-.31-.42-.45l-.26-.45a1.94,1.94,0,0,1-.14-.37l-.1-.31.1,0,.16.28a1.33,1.33,0,0,0,.19.3l.31.34.43.31c.18.07.35.18.54.24a3.32,3.32,0,0,0,.62.16,3.51,3.51,0,0,0,.66.07,11.26,11.26,0,0,0,1.31-.07,11.57,11.57,0,0,1,1.17,0,9.23,9.23,0,0,1,1.21.11Z" transform="translate(-5.48 -21.58)"/><path class="cls-10" d="M121.79,122a37.76,37.76,0,0,1-1.09,5.13c-.22.84-.5,1.68-.79,2.51a25.61,25.61,0,0,1-1,2.46,22.14,22.14,0,0,1-2.65,4.67,11.22,11.22,0,0,1-.89,1.07,8.51,8.51,0,0,1-1,1,10.23,10.23,0,0,1-1.19.85l-.66.34-.71.28-.55.22-.45-.46c-.28-.29-.51-.55-.75-.83s-.46-.56-.67-.84c-.43-.57-.83-1.16-1.21-1.77a26,26,0,0,1-2-3.76c-.28-.65-.54-1.33-.77-2s-.45-1.35-.62-2a28.22,28.22,0,0,1-.73-4.17v-.17a4.65,4.65,0,0,1,.14-.54,4.19,4.19,0,0,1,.2-.49,3.53,3.53,0,0,1,.57-.92,2.73,2.73,0,0,1,.88-.7,2.68,2.68,0,0,1,1.09-.26h.1l.07,0a11.86,11.86,0,0,0,2.23.62,5.75,5.75,0,0,0,1.17.07,2.87,2.87,0,0,0,1.14-.29,3.76,3.76,0,0,1-2.34.69,9.48,9.48,0,0,1-2.47-.29l.16,0a1.81,1.81,0,0,0-1.17.78,3.19,3.19,0,0,0-.32.7,2.36,2.36,0,0,0-.1.38,3.12,3.12,0,0,0-.06.37v-.18a31.78,31.78,0,0,0,1,3.89c.22.63.44,1.27.69,1.88s.52,1.23.81,1.83a31.89,31.89,0,0,0,1.94,3.48c.37.56.75,1.1,1.15,1.62l.6.78c.21.25.43.51.62.71l-1-.24.51-.19.49-.25a8.21,8.21,0,0,0,.94-.64,11,11,0,0,0,.88-.8,9.94,9.94,0,0,0,.82-.89,20,20,0,0,0,1.46-2c.46-.7.89-1.43,1.29-2.17A77.24,77.24,0,0,0,121.79,122Z" transform="translate(-5.48 -21.58)"/><path class="cls-16" d="M109.24,127.18" transform="translate(-5.48 -21.58)"/><path class="cls-10" d="M109.25,136.73s.5-.41,1.24-1.07,1.69-1.58,2.58-2.56a19.06,19.06,0,0,0,2.2-2.88c.14-.21.22-.42.32-.6a2.34,2.34,0,0,0,.21-.48l.17-.42-.13.44a2.27,2.27,0,0,1-.17.5c-.08.18-.14.41-.26.63a19.56,19.56,0,0,1-2,3.13,41.06,41.06,0,0,1-3.53,4.06.5.5,0,0,1-.71,0,.48.48,0,0,1,0-.7Z" transform="translate(-5.48 -21.58)"/><path class="cls-10" d="M106.53,130.47l.28.07a5.19,5.19,0,0,0,.85,0,5.34,5.34,0,0,0,1.21-.2,6.32,6.32,0,0,0,1.34-.55c.21-.13.44-.23.64-.38s.41-.27.59-.43a10.89,10.89,0,0,0,1-.87c.28-.27.47-.53.62-.69l.23-.27-.19.29a8.72,8.72,0,0,1-.55.77,8.25,8.25,0,0,1-.87,1,7,7,0,0,1-.56.52,7.87,7.87,0,0,1-.62.49,6.6,6.6,0,0,1-1.37.76,6.15,6.15,0,0,1-1.35.4,5.91,5.91,0,0,1-1,.08,2.93,2.93,0,0,1-.42,0Z" transform="translate(-5.48 -21.58)"/><path class="cls-10" d="M82,118.63a26.42,26.42,0,0,1-1.81,3.08A33.43,33.43,0,0,1,78,124.56c-.38.47-.79.91-1.2,1.35s-.84.86-1.28,1.27-.9.82-1.37,1.2-1,.74-1.46,1.11l.16-.14a16.62,16.62,0,0,1-1.93,1.82,8.74,8.74,0,0,1-1.16.8,4.79,4.79,0,0,1-.75.34,2.08,2.08,0,0,1-1.21.05,1.52,1.52,0,0,1-.46-.25,1.32,1.32,0,0,1-.32-.37,2.22,2.22,0,0,1-.23-.6,4.47,4.47,0,0,1-.07-.83c0-.49,0-.92.08-1.35.08-.84.18-1.66.23-2.47l0,.36c-.15-.46-.35-1-.55-1.46s-.43-1-.65-1.46a23,23,0,0,0-1.56-2.78c-.29-.43-.59-.87-.91-1.29s-.67-.82-1-1.2l-.27-.28c-.12-.12-.23-.24-.34-.37a2.82,2.82,0,0,1-.51-1,1.47,1.47,0,0,1,.24-1.29,2,2,0,0,1,.89-.62l.37,0c-.15,0-.08,0-.1,0h.51l.62,0,1.26-.14,2.55-.29q-1.2.45-2.43.84c-.41.13-.82.24-1.24.36l-.63.16L63,116l-.18,0h-.17s0,0-.17,0l.36,0a1.17,1.17,0,0,0-.41.37c0,.11,0,.15,0,.29a1.4,1.4,0,0,0,.34.45l.25.21.33.29a16,16,0,0,1,1.26,1.21,15.5,15.5,0,0,1,1.11,1.32,23.92,23.92,0,0,1,1.86,2.91c.27.5.51,1,.74,1.55l.34.79c.1.28.2.53.31.84l0,.16v.2c-.05.86-.13,1.71-.21,2.53,0,.41-.08.81-.09,1.17a4,4,0,0,0,0,.42s0,0,0,0a.3.3,0,0,0-.11-.13.57.57,0,0,0-.15-.09s-.09,0-.08,0h0c-.2,0-.06,0,0-.05a1.83,1.83,0,0,0,.4-.17,7.69,7.69,0,0,0,.92-.61,21.83,21.83,0,0,0,1.77-1.57l.09-.09.07,0c.47-.32,1-.61,1.42-1s.92-.68,1.37-1c.91-.71,1.78-1.48,2.63-2.26A69.07,69.07,0,0,0,82,118.63Z" transform="translate(-5.48 -21.58)"/><polygon class="cls-10" points="57.96 96.55 62.07 96.13 58.64 98.43 57.96 96.55"/><path class="cls-17" d="M66.69,123" transform="translate(-5.48 -21.58)"/><polygon class="cls-10" points="60.78 100.49 67.55 98.35 61.64 102.29 60.78 100.49"/><path class="cls-17" d="M67.55,126.55" transform="translate(-5.48 -21.58)"/><polygon class="cls-10" points="61.74 104.13 70.57 99.87 62.79 105.83 61.74 104.13"/><path class="cls-10" d="M49.68,112.55s1.21-.57,3-1.28A60.41,60.41,0,0,1,59.54,109c.63-.18,1.28-.31,1.9-.45s1.26-.24,1.85-.35L65,108l1.58-.09c.49,0,.94,0,1.33,0a7,7,0,0,1,1,.08l.89.12-.89,0a7.05,7.05,0,0,0-1,0c-.39,0-.83,0-1.31.11l-1.53.24c-.54.13-1.11.24-1.69.39s-1.18.32-1.77.51-1.21.39-1.81.62a60.42,60.42,0,0,0-6.44,2.82c-1.72.87-2.79,1.51-2.79,1.51Z" transform="translate(-5.48 -21.58)"/><path class="cls-10" d="M71.89,112.23l11.77,2c3.52.62,7.65,1.28,12.07,2s9.13,1.45,13.86,2.09,9.45,1.28,13.9,1.72c2.22.2,4.37.41,6.42.56s4,.24,5.76.29,3.42,0,4.87,0,2.7-.17,3.74-.3a20,20,0,0,0,2.37-.47l.83-.22-.81.27a18,18,0,0,1-2.36.62c-1,.17-2.29.36-3.75.48s-3.1.2-4.9.2-3.74,0-5.8-.12-4.22-.23-6.45-.43c-4.47-.4-9.22-1-14-1.59s-9.45-1.46-13.87-2.22-8.51-1.6-12-2.31-6.42-1.39-8.46-1.84Z" transform="translate(-5.48 -21.58)"/><path class="cls-10" d="M149.44,124.71s.79-.52,2-1.17a27.67,27.67,0,0,1,4.68-1.94c.44-.14.89-.24,1.32-.36s.89-.18,1.31-.24.84-.11,1.24-.12.76,0,1.11,0l.93.09a4.91,4.91,0,0,1,.7.13l.61.14-.62-.07a4.47,4.47,0,0,0-.7-.07h-.92l-1.08.12c-.38.06-.77.16-1.18.24s-.81.24-1.23.37-.83.3-1.24.47a26.91,26.91,0,0,0-4.28,2.33c-1.11.75-1.77,1.29-1.77,1.29a.76.76,0,0,1-1.06-.09.75.75,0,0,1,.1-1.06l.06,0Z" transform="translate(-5.48 -21.58)"/><path class="cls-10" d="M147.11,129.51s2.7-1.31,5.46-2.47c1.38-.57,2.78-1.12,3.86-1.44a7.51,7.51,0,0,1,.75-.19,2.94,2.94,0,0,1,.58-.1,1.18,1.18,0,0,1,.38,0h0a1.51,1.51,0,0,0-.37.05,4.69,4.69,0,0,0-.55.17c-.22.08-.45.16-.71.28-1,.45-2.32,1.16-3.6,1.9-2.58,1.48-5.06,3.09-5.06,3.09a.75.75,0,1,1-.82-1.26Z" transform="translate(-5.48 -21.58)"/><path class="cls-10" d="M47.1,110.58a1.74,1.74,0,0,0-.11-.18.58.58,0,0,0-.45-.58s-.38-.12-.47-.13a1.46,1.46,0,0,0-.72,0,2.46,2.46,0,0,0-.77.29,2.41,2.41,0,0,0-.84,1c-.15.25-.2.64.08.77a2.89,2.89,0,0,0,2,.53.8.8,0,0,0,.62-.26,4.9,4.9,0,0,0,.48-1.06C47,111,47.15,110.68,47.1,110.58Z" transform="translate(-5.48 -21.58)"/><path class="cls-10" d="M185,93.72a3.76,3.76,0,0,1-.15,1.16,2.52,2.52,0,0,1-.41.86c-.21.26-.56.45-.79.72a7.17,7.17,0,0,0-1.14,1.61,2.77,2.77,0,0,0-.2.63l-.05.26L182,99l-.11-.27a1,1,0,0,1-.09-.33,2.75,2.75,0,0,1-.06-.44,4.05,4.05,0,0,1,.09-1.12,5.85,5.85,0,0,1,.38-1.21,6.15,6.15,0,0,1,.51-1.16,2.24,2.24,0,0,1,.87-.66,2.57,2.57,0,0,1,1.2-.24Z" transform="translate(-5.48 -21.58)"/><path class="cls-10" d="M178.63,96.09l-.07-.12a.35.35,0,0,0-.27-.35l-.29-.08a.89.89,0,0,0-.43,0,1.32,1.32,0,0,0-1,.77c-.09.15-.11.38,0,.46a1.77,1.77,0,0,0,1.2.32.46.46,0,0,0,.38-.16.77.77,0,0,0,.2-.39.92.92,0,0,0,.09-.25C178.57,96.33,178.66,96.14,178.63,96.09Z" transform="translate(-5.48 -21.58)"/><path class="cls-10" d="M61.94,95a25.4,25.4,0,0,1-3.7,1.6,36.65,36.65,0,0,1-3.94,1.15c-.74.14-1.5.3-2.28.41s-1.58.24-2.38.34c-1.58.22-3.18.39-4.69.48-.75.06-1.48.07-2.17.07s-1.35,0-2-.05a15,15,0,0,1-1.64-.16,8.75,8.75,0,0,1-1.25-.21l-1.07-.26,0-.14,1.08.15a8.43,8.43,0,0,0,1.24.09,14.37,14.37,0,0,0,1.61,0c.59,0,1.23,0,1.91-.12s1.39-.12,2.12-.24c1.47-.19,3-.47,4.57-.8s3.08-.74,4.52-1.08,2.8-.59,4-.79c2.34-.42,4-.58,4-.58Z" transform="translate(-5.48 -21.58)"/><path class="cls-10" d="M55.22,101.8l-.07-.11a.35.35,0,0,0-.28-.35l-.28-.08a.93.93,0,0,0-.44,0,1.23,1.23,0,0,0-.46.18,1.51,1.51,0,0,0-.51.58c-.09.16-.12.39,0,.47a1.75,1.75,0,0,0,1.2.32.52.52,0,0,0,.37-.16.88.88,0,0,0,.21-.39,1.06,1.06,0,0,0,.09-.25C55.16,102,55.25,101.86,55.22,101.8Z" transform="translate(-5.48 -21.58)"/></svg>